<svg width="48" height="48" viewBox="0 0 48 48" fill="none" xmlns="http://www.w3.org/2000/svg">
<circle cx="24" cy="24" r="24" fill="#ECFFF0" fill-opacity="0.7"/>
<path d="M34.4417 36.1041L31 32.6624V35.2583H28.6667V28.6666H35.2583V30.9999H32.6333L36.075 34.4416L34.4417 36.1041ZM24 35.6666C22.3861 35.6666 20.8694 35.3601 19.45 34.7473C18.0305 34.1344 16.7958 33.3033 15.7458 32.2541C14.6958 31.2049 13.8648 29.9701 13.2526 28.5499C12.6405 27.1297 12.3341 25.613 12.3333 23.9999C12.3325 22.3868 12.639 20.8701 13.2526 19.4499C13.8663 18.0297 14.6974 16.795 15.7458 15.7458C16.7943 14.6965 18.029 13.8655 19.45 13.2526C20.871 12.6397 22.3876 12.3333 24 12.3333C25.6123 12.3333 27.129 12.6397 28.55 13.2526C29.971 13.8655 31.2057 14.6965 32.2542 15.7458C33.3026 16.795 34.134 18.0297 34.7485 19.4499C35.3629 20.8701 35.669 22.3868 35.6667 23.9999C35.6667 24.3888 35.6472 24.7777 35.6083 25.1666C35.5694 25.5555 35.5111 25.9444 35.4333 26.3333H33.0417C33.1389 25.9444 33.212 25.5555 33.261 25.1666C33.31 24.7777 33.3341 24.3888 33.3333 23.9999C33.3325 23.611 33.3084 23.2221 33.261 22.8333C33.2135 22.4444 33.1404 22.0555 33.0417 21.6666H29.075C29.1333 22.0555 29.1773 22.4444 29.2068 22.8333C29.2364 23.2221 29.2508 23.611 29.25 23.9999C29.2492 24.3888 29.2348 24.7777 29.2068 25.1666C29.1788 25.5555 29.1349 25.9444 29.075 26.3333H26.7417C26.8 25.9444 26.8439 25.5555 26.8735 25.1666C26.903 24.7777 26.9174 24.3888 26.9166 23.9999C26.9159 23.611 26.9015 23.2221 26.8735 22.8333C26.8455 22.4444 26.8015 22.0555 26.7417 21.6666H21.2583C21.2 22.0555 21.1564 22.4444 21.1276 22.8333C21.0989 23.2221 21.0841 23.611 21.0833 23.9999C21.0825 24.3888 21.0973 24.7777 21.1276 25.1666C21.158 25.5555 21.2015 25.9444 21.2583 26.3333H25.1666V28.6666H21.7833C22.0166 29.5027 22.318 30.305 22.6875 31.0734C23.0569 31.8419 23.4944 32.5757 24 33.2749C24.3889 33.2749 24.7778 33.2508 25.1666 33.2026C25.5555 33.1544 25.9444 33.1104 26.3333 33.0708V35.4624C25.9444 35.5013 25.5555 35.5453 25.1666 35.5943C24.7778 35.6433 24.3889 35.6674 24 35.6666ZM14.9583 26.3333H18.925C18.8666 25.9444 18.8231 25.5555 18.7943 25.1666C18.7655 24.7777 18.7508 24.3888 18.75 23.9999C18.7492 23.611 18.764 23.2221 18.7943 22.8333C18.8246 22.4444 18.8682 22.0555 18.925 21.6666H14.9583C14.8611 22.0555 14.7884 22.4444 14.7401 22.8333C14.6919 23.2221 14.6674 23.611 14.6666 23.9999C14.6659 24.3888 14.6904 24.7777 14.7401 25.1666C14.7899 25.5555 14.8626 25.9444 14.9583 26.3333ZM15.95 19.3333H19.3916C19.5666 18.6138 19.7856 17.9091 20.0485 17.2193C20.3114 16.5294 20.6174 15.8535 20.9666 15.1916C19.8972 15.5416 18.9347 16.0716 18.0791 16.7818C17.2236 17.4919 16.5139 18.3424 15.95 19.3333ZM20.9666 32.8083C20.6166 32.1471 20.3102 31.4716 20.0473 30.7818C19.7844 30.0919 19.5659 29.3868 19.3916 28.6666H15.95C16.5139 29.6583 17.2236 30.5091 18.0791 31.2193C18.9347 31.9294 19.8972 32.459 20.9666 32.8083ZM21.7833 19.3333H26.2166C25.9833 18.4971 25.6819 17.6953 25.3125 16.9276C24.943 16.1599 24.5055 15.4257 24 14.7249C23.4944 15.4249 23.0569 16.1591 22.6875 16.9276C22.318 17.696 22.0166 18.4979 21.7833 19.3333ZM28.6083 19.3333H32.05C31.4861 18.3416 30.7764 17.4911 29.9208 16.7818C29.0653 16.0724 28.1028 15.5424 27.0333 15.1916C27.3833 15.8527 27.6898 16.5286 27.9526 17.2193C28.2155 17.9099 28.4341 18.6146 28.6083 19.3333Z" fill="#288731"/>
</svg>
