<svg width="48" height="48" viewBox="0 0 48 48" fill="none" xmlns="http://www.w3.org/2000/svg">
<circle cx="24" cy="24" r="24" fill="#ECFFF0" fill-opacity="0.7"/>
<path d="M12.625 21.8126H14.8125V27.0626H13.5C13.1519 27.0626 12.8181 27.2008 12.5719 27.447C12.3258 27.6931 12.1875 28.027 12.1875 28.3751C12.1875 28.7232 12.3258 29.057 12.5719 29.3031C12.8181 29.5493 13.1519 29.6876 13.5 29.6876H34.5C34.8481 29.6876 35.1819 29.5493 35.4281 29.3031C35.6742 29.057 35.8125 28.7232 35.8125 28.3751C35.8125 28.027 35.6742 27.6931 35.4281 27.447C35.1819 27.2008 34.8481 27.0626 34.5 27.0626H33.1875V21.8126H35.375C35.6608 21.8126 35.9388 21.7193 36.1667 21.547C36.3947 21.3746 36.5601 21.1325 36.638 20.8576C36.7158 20.5826 36.7018 20.2897 36.598 20.0234C36.4942 19.7572 36.3064 19.532 36.063 19.3823L24.688 12.3823C24.4811 12.2549 24.2429 12.1875 24 12.1875C23.7571 12.1875 23.5189 12.2549 23.312 12.3823L11.937 19.3823C11.6936 19.532 11.5058 19.7572 11.402 20.0234C11.2982 20.2897 11.2842 20.5826 11.362 20.8576C11.4399 21.1325 11.6053 21.3746 11.8333 21.547C12.0612 21.7193 12.3392 21.8126 12.625 21.8126ZM17.4375 21.8126H20.0625V27.0626H17.4375V21.8126ZM25.3125 21.8126V27.0626H22.6875V21.8126H25.3125ZM30.5625 27.0626H27.9375V21.8126H30.5625V27.0626ZM24 15.0412L30.7375 19.1876H17.2625L24 15.0412ZM37.5625 32.7501C37.5625 33.0982 37.4242 33.432 37.1781 33.6781C36.9319 33.9243 36.5981 34.0626 36.25 34.0626H11.75C11.4019 34.0626 11.0681 33.9243 10.8219 33.6781C10.5758 33.432 10.4375 33.0982 10.4375 32.7501C10.4375 32.402 10.5758 32.0681 10.8219 31.822C11.0681 31.5758 11.4019 31.4376 11.75 31.4376H36.25C36.5981 31.4376 36.9319 31.5758 37.1781 31.822C37.4242 32.0681 37.5625 32.402 37.5625 32.7501Z" fill="#288731"/>
</svg>
