<svg width="48" height="48" viewBox="0 0 48 48" fill="none" xmlns="http://www.w3.org/2000/svg">
<circle cx="24" cy="24" r="24" fill="#ECFFF0" fill-opacity="0.7"/>
<g clip-path="url(#clip0_287_157)">
<path d="M16.6655 34.0334C18.4665 35.3438 20.5861 36.1468 22.8032 36.3588C25.0203 36.5707 27.2537 36.1837 29.2703 35.2382C31.2868 34.2927 33.0127 32.8233 34.2677 30.9833C35.5228 29.1434 36.2611 27.0004 36.4055 24.7778H24.3344L16.6655 34.0334Z" fill="#288731"/>
<path d="M36.4055 23.2223C36.2836 21.1958 35.6677 19.2298 34.6115 17.4959C33.5553 15.7621 32.091 14.3129 30.3462 13.2749C28.6014 12.2369 26.6291 11.6415 24.6014 11.5407C22.5737 11.4399 20.5521 11.8368 18.713 12.6966C16.8738 13.5565 15.273 14.8533 14.0501 16.4738C12.8272 18.0944 12.0193 19.9896 11.697 21.994C11.3746 23.9985 11.5476 26.0514 12.2008 27.9737C12.854 29.8959 13.9676 31.6292 15.4444 33.0223L23.6033 23.2223H36.4055Z" fill="#288731"/>
</g>
<defs>
<clipPath id="clip0_287_157">
<rect width="28" height="28" fill="white" transform="translate(10 10)"/>
</clipPath>
</defs>
</svg>
