<svg width="48" height="48" viewBox="0 0 48 48" fill="none" xmlns="http://www.w3.org/2000/svg">
<circle cx="24" cy="24" r="24" fill="#ECFFF0" fill-opacity="0.7"/>
<g clip-path="url(#clip0_287_168)">
<path d="M19.1 28.4C18.9954 28.4 18.8909 28.4153 18.7911 28.4477C18.2241 28.6319 17.6278 28.75 17 28.75C16.3722 28.75 15.7759 28.6319 15.2084 28.4477C15.1087 28.4153 15.0046 28.4 14.9 28.4C12.1849 28.4 9.98557 30.6085 10 33.3271C10.0061 34.476 10.9507 35.4 12.1 35.4H21.9C23.0493 35.4 23.9939 34.476 24 33.3271C24.0144 30.6085 21.8151 28.4 19.1 28.4ZM17 27C19.3196 27 21.2 25.1196 21.2 22.8C21.2 20.4804 19.3196 18.6 17 18.6C14.6804 18.6 12.8 20.4804 12.8 22.8C12.8 25.1196 14.6804 27 17 27ZM35.9 13H19.1C17.9419 13 17 13.9734 17 15.1696V17.2C18.0246 17.2 18.9731 17.4966 19.8 17.9788V15.8H35.2V28.4H32.4V25.6H26.8V28.4H23.4645C24.3001 29.1302 24.9135 30.0944 25.2009 31.2H35.9C37.0581 31.2 38 30.2266 38 29.0304V15.1696C38 13.9734 37.0581 13 35.9 13Z" fill="#288731"/>
</g>
<defs>
<clipPath id="clip0_287_168">
<rect width="28" height="22.4" fill="white" transform="translate(10 13)"/>
</clipPath>
</defs>
</svg>
