<svg width="16" height="17" viewBox="0 0 16 17" fill="none" xmlns="http://www.w3.org/2000/svg">
<path d="M12.1467 14.3333H3.85336C3.62217 14.3239 3.3951 14.269 3.18516 14.1717C2.97522 14.0744 2.78652 13.9367 2.62986 13.7664C2.4732 13.5961 2.35166 13.3966 2.27218 13.1793C2.1927 12.962 2.15686 12.7312 2.16669 12.5V10.5C2.16669 10.3674 2.21937 10.2402 2.31314 10.1464C2.4069 10.0527 2.53408 10 2.66669 10C2.7993 10 2.92648 10.0527 3.02024 10.1464C3.11401 10.2402 3.16669 10.3674 3.16669 10.5V12.5C3.14948 12.698 3.20912 12.8949 3.33324 13.0501C3.45737 13.2052 3.63646 13.3067 3.83336 13.3333H12.1467C12.3436 13.3067 12.5227 13.2052 12.6468 13.0501C12.7709 12.8949 12.8306 12.698 12.8134 12.5V10.5C12.8134 10.3674 12.866 10.2402 12.9598 10.1464C13.0536 10.0527 13.1807 10 13.3134 10C13.446 10 13.5731 10.0527 13.6669 10.1464C13.7607 10.2402 13.8134 10.3674 13.8134 10.5V12.5C13.8333 12.9636 13.6694 13.4163 13.3573 13.7596C13.0452 14.103 12.6101 14.3092 12.1467 14.3333Z" fill="#288731"/>
<path d="M8.00002 11C7.93433 11.0003 7.86923 10.9875 7.80856 10.9623C7.74788 10.9371 7.69285 10.9001 7.64669 10.8534L4.98002 8.18669C4.8917 8.0919 4.84362 7.96654 4.8459 7.83701C4.84819 7.70747 4.90066 7.58388 4.99227 7.49227C5.08388 7.40066 5.20747 7.34819 5.337 7.3459C5.46654 7.34362 5.5919 7.3917 5.68669 7.48002L8.00002 9.79335L10.3134 7.48002C10.4081 7.3917 10.5335 7.34362 10.663 7.3459C10.7926 7.34819 10.9162 7.40066 11.0078 7.49227C11.0994 7.58388 11.1519 7.70747 11.1541 7.83701C11.1564 7.96654 11.1083 8.0919 11.02 8.18669L8.35335 10.8534C8.30719 10.9001 8.25216 10.9371 8.19148 10.9623C8.13081 10.9875 8.06571 11.0003 8.00002 11Z" fill="#288731"/>
<path d="M8 11C7.86793 10.9982 7.74175 10.945 7.64836 10.8516C7.55496 10.7582 7.50173 10.632 7.5 10.5V3.16663C7.5 3.03402 7.55268 2.90684 7.64645 2.81307C7.74022 2.7193 7.86739 2.66663 8 2.66663C8.13261 2.66663 8.25978 2.7193 8.35355 2.81307C8.44732 2.90684 8.5 3.03402 8.5 3.16663V10.5C8.49827 10.632 8.44504 10.7582 8.35164 10.8516C8.25825 10.945 8.13207 10.9982 8 11Z" fill="#288731"/>
</svg>
