<svg width="14" height="12" viewBox="0 0 14 12" fill="none" xmlns="http://www.w3.org/2000/svg">
<path d="M12.3334 0.666656H1.66671C0.933374 0.666656 0.340041 1.26666 0.340041 1.99999L0.333374 9.99999C0.333374 10.7333 0.933374 11.3333 1.66671 11.3333H12.3334C13.0667 11.3333 13.6667 10.7333 13.6667 9.99999V1.99999C13.6667 1.26666 13.0667 0.666656 12.3334 0.666656ZM12.0667 3.49999L7.35337 6.44666C7.14004 6.57999 6.86004 6.57999 6.64671 6.44666L1.93337 3.49999C1.86653 3.46246 1.80799 3.41176 1.7613 3.35096C1.71461 3.29015 1.68075 3.22051 1.66176 3.14624C1.64277 3.07197 1.63904 2.99461 1.65081 2.91886C1.66258 2.84311 1.6896 2.77053 1.73023 2.70552C1.77086 2.64052 1.82426 2.58443 1.88719 2.54065C1.95013 2.49688 2.02129 2.46633 2.09637 2.45086C2.17145 2.43538 2.2489 2.4353 2.32401 2.45062C2.39912 2.46594 2.47035 2.49635 2.53337 2.53999L7.00004 5.33332L11.4667 2.53999C11.5297 2.49635 11.601 2.46594 11.6761 2.45062C11.7512 2.4353 11.8286 2.43538 11.9037 2.45086C11.9788 2.46633 12.05 2.49688 12.1129 2.54065C12.1758 2.58443 12.2292 2.64052 12.2699 2.70552C12.3105 2.77053 12.3375 2.84311 12.3493 2.91886C12.361 2.99461 12.3573 3.07197 12.3383 3.14624C12.3193 3.22051 12.2855 3.29015 12.2388 3.35096C12.1921 3.41176 12.1336 3.46246 12.0667 3.49999Z" fill="white"/>
</svg>
