<svg width="12" height="12" viewBox="0 0 12 12" fill="none" xmlns="http://www.w3.org/2000/svg">
<path d="M10.8 11.3333C9.59907 11.3333 8.39507 11.0569 7.18796 10.504C5.98085 9.9511 4.86863 9.16599 3.85129 8.14866C2.8424 7.13132 2.05951 6.01555 1.50263 4.80132C0.945293 3.58666 0.666626 2.38621 0.666626 1.19999V0.666656H3.62596L4.19129 3.38866L2.39396 5.06199C2.69796 5.5891 3.01285 6.07066 3.33863 6.50666C3.6644 6.94266 4.00374 7.33577 4.35663 7.68599C4.71307 8.05932 5.11485 8.40821 5.56196 8.73266C6.00907 9.0571 6.51929 9.3771 7.09263 9.69266L8.83329 7.88732L11.3333 8.39132V11.3333H10.8Z" fill="white"/>
</svg>
