<svg width="594" height="210" viewBox="0 0 594 210" fill="none" xmlns="http://www.w3.org/2000/svg">
<rect y="20" width="22" height="23.5043" rx="11" fill="#FFCA5A"/>
<rect x="515" y="125" width="79" height="84.4017" rx="10" fill="#FFCA5A"/>
<rect x="7" width="566" height="177" rx="16" fill="#0B2A0E"/>
<path d="M30.2656 46L34.5 25.7031H26.9844L27.5312 23.0938H45.5625L45.0156 25.7031H37.5625L33.3281 46H30.2656ZM41.1875 39.7031C41.1875 36.4635 42.1406 33.7812 44.0469 31.6562C45.6198 29.9062 47.6823 29.0312 50.2344 29.0312C52.2344 29.0312 53.8438 29.6562 55.0625 30.9062C56.2917 32.1562 56.9062 33.8438 56.9062 35.9688C56.9062 37.875 56.5208 39.651 55.75 41.2969C54.9792 42.9323 53.8802 44.1875 52.4531 45.0625C51.0365 45.9375 49.5417 46.375 47.9688 46.375C46.6771 46.375 45.5 46.099 44.4375 45.5469C43.3854 44.9948 42.5781 44.2135 42.0156 43.2031C41.4635 42.1927 41.1875 41.026 41.1875 39.7031ZM44.0156 39.4219C44.0156 40.9844 44.3906 42.1719 45.1406 42.9844C45.8906 43.7865 46.8438 44.1875 48 44.1875C48.6042 44.1875 49.2031 44.0677 49.7969 43.8281C50.3906 43.5781 50.9427 43.2031 51.4531 42.7031C51.9635 42.2031 52.3958 41.6354 52.75 41C53.1146 40.3542 53.4062 39.6615 53.625 38.9219C53.9479 37.8906 54.1094 36.901 54.1094 35.9531C54.1094 34.4531 53.7292 33.2917 52.9688 32.4688C52.2188 31.6354 51.2708 31.2188 50.125 31.2188C49.2396 31.2188 48.4323 31.4323 47.7031 31.8594C46.974 32.276 46.3125 32.8906 45.7188 33.7031C45.1354 34.5156 44.7031 35.4635 44.4219 36.5469C44.151 37.6198 44.0156 38.5781 44.0156 39.4219ZM67.4062 46L72.1875 23.0938H75.0156L73.3125 31.2812C74.2083 30.4583 75.0208 29.8802 75.75 29.5469C76.4792 29.2031 77.2396 29.0312 78.0312 29.0312C79.5833 29.0312 80.875 29.6094 81.9062 30.7656C82.9479 31.9219 83.4688 33.6042 83.4688 35.8125C83.4688 37.2812 83.2604 38.625 82.8438 39.8438C82.4271 41.0625 81.9115 42.0885 81.2969 42.9219C80.6823 43.7448 80.0469 44.4062 79.3906 44.9062C78.7344 45.3958 78.0625 45.7604 77.375 46C76.6875 46.25 76.026 46.375 75.3906 46.375C74.2969 46.375 73.3333 46.0885 72.5 45.5156C71.6667 44.9323 71.0156 44.0469 70.5469 42.8594L69.8906 46H67.4062ZM71.5938 39.1875L71.5781 39.7188C71.5781 41.1354 71.9167 42.2135 72.5938 42.9531C73.2708 43.6927 74.1146 44.0625 75.125 44.0625C76.1146 44.0625 77.0208 43.7188 77.8438 43.0312C78.6771 42.3333 79.3594 41.25 79.8906 39.7812C80.4219 38.3125 80.6875 36.9583 80.6875 35.7188C80.6875 34.3229 80.349 33.2396 79.6719 32.4688C79.0052 31.6979 78.1771 31.3125 77.1875 31.3125C76.1667 31.3125 75.2292 31.7083 74.375 32.5C73.5208 33.2812 72.8073 34.4896 72.2344 36.125C71.8073 37.3438 71.5938 38.3646 71.5938 39.1875ZM97.4062 40.3594L100.156 40.6406C99.7604 42.0052 98.849 43.3021 97.4219 44.5312C96.0052 45.7604 94.3125 46.375 92.3438 46.375C91.1146 46.375 89.9844 46.0938 88.9531 45.5312C87.9323 44.9583 87.151 44.1302 86.6094 43.0469C86.0781 41.9635 85.8125 40.7292 85.8125 39.3438C85.8125 37.5312 86.2292 35.776 87.0625 34.0781C87.9062 32.3698 88.9948 31.1042 90.3281 30.2812C91.6615 29.4479 93.1042 29.0312 94.6562 29.0312C96.6354 29.0312 98.2135 29.6458 99.3906 30.875C100.578 32.1042 101.172 33.7812 101.172 35.9062C101.172 36.7188 101.099 37.5521 100.953 38.4062H88.7344C88.6927 38.7292 88.6719 39.0208 88.6719 39.2812C88.6719 40.8333 89.026 42.0208 89.7344 42.8438C90.4531 43.6562 91.3281 44.0625 92.3594 44.0625C93.3281 44.0625 94.2812 43.7448 95.2188 43.1094C96.1562 42.474 96.8854 41.5573 97.4062 40.3594ZM89.1875 36.25H98.5C98.5104 35.9583 98.5156 35.75 98.5156 35.625C98.5156 34.2083 98.1615 33.125 97.4531 32.375C96.7448 31.6146 95.8333 31.2344 94.7188 31.2344C93.5104 31.2344 92.4062 31.651 91.4062 32.4844C90.4167 33.3177 89.6771 34.5729 89.1875 36.25ZM123.125 43.9375C122.146 44.7812 121.203 45.401 120.297 45.7969C119.391 46.1823 118.422 46.375 117.391 46.375C115.859 46.375 114.625 45.9271 113.688 45.0312C112.75 44.125 112.281 42.9688 112.281 41.5625C112.281 40.6354 112.49 39.8177 112.906 39.1094C113.333 38.3906 113.896 37.8177 114.594 37.3906C115.292 36.9531 116.146 36.6406 117.156 36.4531C117.792 36.3281 118.995 36.2292 120.766 36.1562C122.547 36.0833 123.823 35.8958 124.594 35.5938C124.812 34.8229 124.922 34.1823 124.922 33.6719C124.922 33.0156 124.682 32.5 124.203 32.125C123.547 31.6042 122.589 31.3438 121.328 31.3438C120.141 31.3438 119.167 31.6094 118.406 32.1406C117.656 32.6615 117.109 33.4062 116.766 34.375L113.906 34.125C114.49 32.4792 115.411 31.2188 116.672 30.3438C117.943 29.4688 119.542 29.0312 121.469 29.0312C123.521 29.0312 125.146 29.5208 126.344 30.5C127.26 31.2292 127.719 32.1771 127.719 33.3438C127.719 34.2292 127.589 35.2552 127.328 36.4219L126.406 40.5469C126.115 41.8594 125.969 42.9271 125.969 43.75C125.969 44.2708 126.083 45.0208 126.312 46H123.453C123.297 45.4583 123.188 44.7708 123.125 43.9375ZM124.172 37.5938C123.776 37.75 123.349 37.8698 122.891 37.9531C122.443 38.0365 121.688 38.125 120.625 38.2188C118.979 38.3646 117.818 38.5521 117.141 38.7812C116.464 39 115.953 39.3542 115.609 39.8438C115.266 40.3333 115.094 40.875 115.094 41.4688C115.094 42.2604 115.365 42.9115 115.906 43.4219C116.458 43.9323 117.24 44.1875 118.25 44.1875C119.188 44.1875 120.089 43.9427 120.953 43.4531C121.818 42.9531 122.5 42.2604 123 41.375C123.5 40.4896 123.891 39.2292 124.172 37.5938ZM138.5 47.5L141.359 47.7656C141.339 48.4115 141.417 48.8958 141.594 49.2188C141.771 49.5417 142.052 49.7917 142.438 49.9688C142.948 50.1979 143.609 50.3125 144.422 50.3125C146.13 50.3125 147.359 49.8698 148.109 48.9844C148.599 48.3906 149.052 47.099 149.469 45.1094L149.75 43.7656C148.281 45.2552 146.719 46 145.062 46C143.385 46 141.979 45.3854 140.844 44.1562C139.719 42.9167 139.156 41.1667 139.156 38.9062C139.156 37.0417 139.599 35.3281 140.484 33.7656C141.38 32.2031 142.443 31.026 143.672 30.2344C144.901 29.4323 146.167 29.0312 147.469 29.0312C149.646 29.0312 151.323 30.0625 152.5 32.125L153.062 29.4062H155.656L152.312 45.4219C151.948 47.1823 151.469 48.5521 150.875 49.5312C150.281 50.5208 149.453 51.2865 148.391 51.8281C147.339 52.3698 146.12 52.6406 144.734 52.6406C143.401 52.6406 142.25 52.4688 141.281 52.125C140.323 51.7812 139.604 51.276 139.125 50.6094C138.656 49.9531 138.422 49.1979 138.422 48.3438C138.422 48.0833 138.448 47.8021 138.5 47.5ZM142.031 38.6562C142.031 39.7917 142.141 40.6458 142.359 41.2188C142.672 42.0208 143.115 42.6354 143.688 43.0625C144.271 43.4792 144.917 43.6875 145.625 43.6875C146.552 43.6875 147.474 43.3646 148.391 42.7188C149.307 42.0625 150.047 41.0521 150.609 39.6875C151.182 38.3229 151.469 37.0208 151.469 35.7812C151.469 34.4167 151.089 33.3333 150.328 32.5312C149.578 31.7188 148.646 31.3125 147.531 31.3125C146.844 31.3125 146.177 31.5 145.531 31.875C144.885 32.2396 144.281 32.8021 143.719 33.5625C143.167 34.3125 142.745 35.2135 142.453 36.2656C142.172 37.3177 142.031 38.1146 142.031 38.6562ZM156.25 46L161.031 23.0938H163.859L159.078 46H156.25ZM164.094 39.7031C164.094 36.4635 165.047 33.7812 166.953 31.6562C168.526 29.9062 170.589 29.0312 173.141 29.0312C175.141 29.0312 176.75 29.6562 177.969 30.9062C179.198 32.1562 179.812 33.8438 179.812 35.9688C179.812 37.875 179.427 39.651 178.656 41.2969C177.885 42.9323 176.786 44.1875 175.359 45.0625C173.943 45.9375 172.448 46.375 170.875 46.375C169.583 46.375 168.406 46.099 167.344 45.5469C166.292 44.9948 165.484 44.2135 164.922 43.2031C164.37 42.1927 164.094 41.026 164.094 39.7031ZM166.922 39.4219C166.922 40.9844 167.297 42.1719 168.047 42.9844C168.797 43.7865 169.75 44.1875 170.906 44.1875C171.51 44.1875 172.109 44.0677 172.703 43.8281C173.297 43.5781 173.849 43.2031 174.359 42.7031C174.87 42.2031 175.302 41.6354 175.656 41C176.021 40.3542 176.312 39.6615 176.531 38.9219C176.854 37.8906 177.016 36.901 177.016 35.9531C177.016 34.4531 176.635 33.2917 175.875 32.4688C175.125 31.6354 174.177 31.2188 173.031 31.2188C172.146 31.2188 171.339 31.4323 170.609 31.8594C169.88 32.276 169.219 32.8906 168.625 33.7031C168.042 34.5156 167.609 35.4635 167.328 36.5469C167.057 37.6198 166.922 38.5781 166.922 39.4219ZM181.406 46L186.188 23.0938H189.016L187.312 31.2812C188.208 30.4583 189.021 29.8802 189.75 29.5469C190.479 29.2031 191.24 29.0312 192.031 29.0312C193.583 29.0312 194.875 29.6094 195.906 30.7656C196.948 31.9219 197.469 33.6042 197.469 35.8125C197.469 37.2812 197.26 38.625 196.844 39.8438C196.427 41.0625 195.911 42.0885 195.297 42.9219C194.682 43.7448 194.047 44.4062 193.391 44.9062C192.734 45.3958 192.062 45.7604 191.375 46C190.688 46.25 190.026 46.375 189.391 46.375C188.297 46.375 187.333 46.0885 186.5 45.5156C185.667 44.9323 185.016 44.0469 184.547 42.8594L183.891 46H181.406ZM185.594 39.1875L185.578 39.7188C185.578 41.1354 185.917 42.2135 186.594 42.9531C187.271 43.6927 188.115 44.0625 189.125 44.0625C190.115 44.0625 191.021 43.7188 191.844 43.0312C192.677 42.3333 193.359 41.25 193.891 39.7812C194.422 38.3125 194.688 36.9583 194.688 35.7188C194.688 34.3229 194.349 33.2396 193.672 32.4688C193.005 31.6979 192.177 31.3125 191.188 31.3125C190.167 31.3125 189.229 31.7083 188.375 32.5C187.521 33.2812 186.807 34.4896 186.234 36.125C185.807 37.3438 185.594 38.3646 185.594 39.1875ZM210.406 43.9375C209.427 44.7812 208.484 45.401 207.578 45.7969C206.672 46.1823 205.703 46.375 204.672 46.375C203.141 46.375 201.906 45.9271 200.969 45.0312C200.031 44.125 199.562 42.9688 199.562 41.5625C199.562 40.6354 199.771 39.8177 200.188 39.1094C200.615 38.3906 201.177 37.8177 201.875 37.3906C202.573 36.9531 203.427 36.6406 204.438 36.4531C205.073 36.3281 206.276 36.2292 208.047 36.1562C209.828 36.0833 211.104 35.8958 211.875 35.5938C212.094 34.8229 212.203 34.1823 212.203 33.6719C212.203 33.0156 211.964 32.5 211.484 32.125C210.828 31.6042 209.87 31.3438 208.609 31.3438C207.422 31.3438 206.448 31.6094 205.688 32.1406C204.938 32.6615 204.391 33.4062 204.047 34.375L201.188 34.125C201.771 32.4792 202.693 31.2188 203.953 30.3438C205.224 29.4688 206.823 29.0312 208.75 29.0312C210.802 29.0312 212.427 29.5208 213.625 30.5C214.542 31.2292 215 32.1771 215 33.3438C215 34.2292 214.87 35.2552 214.609 36.4219L213.688 40.5469C213.396 41.8594 213.25 42.9271 213.25 43.75C213.25 44.2708 213.365 45.0208 213.594 46H210.734C210.578 45.4583 210.469 44.7708 210.406 43.9375ZM211.453 37.5938C211.057 37.75 210.63 37.8698 210.172 37.9531C209.724 38.0365 208.969 38.125 207.906 38.2188C206.26 38.3646 205.099 38.5521 204.422 38.7812C203.745 39 203.234 39.3542 202.891 39.8438C202.547 40.3333 202.375 40.875 202.375 41.4688C202.375 42.2604 202.646 42.9115 203.188 43.4219C203.74 43.9323 204.521 44.1875 205.531 44.1875C206.469 44.1875 207.37 43.9427 208.234 43.4531C209.099 42.9531 209.781 42.2604 210.281 41.375C210.781 40.4896 211.172 39.2292 211.453 37.5938ZM216.812 46L221.594 23.0938H224.422L219.641 46H216.812ZM233.062 46L236.531 29.4062H239.031L238.328 32.7969C239.182 31.5156 240.016 30.5677 240.828 29.9531C241.651 29.3385 242.49 29.0312 243.344 29.0312C243.906 29.0312 244.599 29.2344 245.422 29.6406L244.266 32.2656C243.776 31.9115 243.24 31.7344 242.656 31.7344C241.667 31.7344 240.651 32.2865 239.609 33.3906C238.568 34.4948 237.75 36.4792 237.156 39.3438L235.75 46H233.062ZM255.906 40.3594L258.656 40.6406C258.26 42.0052 257.349 43.3021 255.922 44.5312C254.505 45.7604 252.812 46.375 250.844 46.375C249.615 46.375 248.484 46.0938 247.453 45.5312C246.432 44.9583 245.651 44.1302 245.109 43.0469C244.578 41.9635 244.312 40.7292 244.312 39.3438C244.312 37.5312 244.729 35.776 245.562 34.0781C246.406 32.3698 247.495 31.1042 248.828 30.2812C250.161 29.4479 251.604 29.0312 253.156 29.0312C255.135 29.0312 256.714 29.6458 257.891 30.875C259.078 32.1042 259.672 33.7812 259.672 35.9062C259.672 36.7188 259.599 37.5521 259.453 38.4062H247.234C247.193 38.7292 247.172 39.0208 247.172 39.2812C247.172 40.8333 247.526 42.0208 248.234 42.8438C248.953 43.6562 249.828 44.0625 250.859 44.0625C251.828 44.0625 252.781 43.7448 253.719 43.1094C254.656 42.474 255.385 41.5573 255.906 40.3594ZM247.688 36.25H257C257.01 35.9583 257.016 35.75 257.016 35.625C257.016 34.2083 256.661 33.125 255.953 32.375C255.245 31.6146 254.333 31.2344 253.219 31.2344C252.01 31.2344 250.906 31.651 249.906 32.4844C248.917 33.3177 248.177 34.5729 247.688 36.25ZM261.922 46L264.938 31.5938H262.406L262.859 29.4062H265.391L265.875 27.0469C266.125 25.8698 266.38 25.0208 266.641 24.5C266.911 23.9792 267.344 23.5521 267.938 23.2188C268.542 22.875 269.359 22.7031 270.391 22.7031C271.109 22.7031 272.151 22.8542 273.516 23.1562L273 25.625C272.042 25.375 271.24 25.25 270.594 25.25C270.042 25.25 269.62 25.3906 269.328 25.6719C269.047 25.9427 268.802 26.5938 268.594 27.625L268.219 29.4062H271.375L270.922 31.5938H267.766L264.75 46H261.922ZM282.625 40.3594L285.375 40.6406C284.979 42.0052 284.068 43.3021 282.641 44.5312C281.224 45.7604 279.531 46.375 277.562 46.375C276.333 46.375 275.203 46.0938 274.172 45.5312C273.151 44.9583 272.37 44.1302 271.828 43.0469C271.297 41.9635 271.031 40.7292 271.031 39.3438C271.031 37.5312 271.448 35.776 272.281 34.0781C273.125 32.3698 274.214 31.1042 275.547 30.2812C276.88 29.4479 278.323 29.0312 279.875 29.0312C281.854 29.0312 283.432 29.6458 284.609 30.875C285.797 32.1042 286.391 33.7812 286.391 35.9062C286.391 36.7188 286.318 37.5521 286.172 38.4062H273.953C273.911 38.7292 273.891 39.0208 273.891 39.2812C273.891 40.8333 274.245 42.0208 274.953 42.8438C275.672 43.6562 276.547 44.0625 277.578 44.0625C278.547 44.0625 279.5 43.7448 280.438 43.1094C281.375 42.474 282.104 41.5573 282.625 40.3594ZM274.406 36.25H283.719C283.729 35.9583 283.734 35.75 283.734 35.625C283.734 34.2083 283.38 33.125 282.672 32.375C281.964 31.6146 281.052 31.2344 279.938 31.2344C278.729 31.2344 277.625 31.651 276.625 32.4844C275.635 33.3177 274.896 34.5729 274.406 36.25ZM288.25 46L291.719 29.4062H294.219L293.516 32.7969C294.37 31.5156 295.203 30.5677 296.016 29.9531C296.839 29.3385 297.677 29.0312 298.531 29.0312C299.094 29.0312 299.786 29.2344 300.609 29.6406L299.453 32.2656C298.964 31.9115 298.427 31.7344 297.844 31.7344C296.854 31.7344 295.839 32.2865 294.797 33.3906C293.755 34.4948 292.938 36.4792 292.344 39.3438L290.938 46H288.25ZM311.094 40.3594L313.844 40.6406C313.448 42.0052 312.536 43.3021 311.109 44.5312C309.693 45.7604 308 46.375 306.031 46.375C304.802 46.375 303.672 46.0938 302.641 45.5312C301.62 44.9583 300.839 44.1302 300.297 43.0469C299.766 41.9635 299.5 40.7292 299.5 39.3438C299.5 37.5312 299.917 35.776 300.75 34.0781C301.594 32.3698 302.682 31.1042 304.016 30.2812C305.349 29.4479 306.792 29.0312 308.344 29.0312C310.323 29.0312 311.901 29.6458 313.078 30.875C314.266 32.1042 314.859 33.7812 314.859 35.9062C314.859 36.7188 314.786 37.5521 314.641 38.4062H302.422C302.38 38.7292 302.359 39.0208 302.359 39.2812C302.359 40.8333 302.714 42.0208 303.422 42.8438C304.141 43.6562 305.016 44.0625 306.047 44.0625C307.016 44.0625 307.969 43.7448 308.906 43.1094C309.844 42.474 310.573 41.5573 311.094 40.3594ZM302.875 36.25H312.188C312.198 35.9583 312.203 35.75 312.203 35.625C312.203 34.2083 311.849 33.125 311.141 32.375C310.432 31.6146 309.521 31.2344 308.406 31.2344C307.198 31.2344 306.094 31.651 305.094 32.4844C304.104 33.3177 303.365 34.5729 302.875 36.25ZM316.719 46L320.188 29.4062H322.75L322.141 32.2969C323.255 31.1615 324.297 30.3333 325.266 29.8125C326.234 29.2917 327.224 29.0312 328.234 29.0312C329.578 29.0312 330.63 29.3958 331.391 30.125C332.161 30.8542 332.547 31.8281 332.547 33.0469C332.547 33.6615 332.411 34.6302 332.141 35.9531L330.031 46H327.203L329.406 35.4844C329.625 34.4635 329.734 33.7083 329.734 33.2188C329.734 32.6667 329.542 32.2188 329.156 31.875C328.781 31.5312 328.234 31.3594 327.516 31.3594C326.068 31.3594 324.776 31.8802 323.641 32.9219C322.516 33.9635 321.688 35.75 321.156 38.2812L319.547 46H316.719ZM345.984 39.9531L348.812 40.25C348.104 42.3229 347.094 43.8646 345.781 44.875C344.479 45.875 342.995 46.375 341.328 46.375C339.526 46.375 338.062 45.7917 336.938 44.625C335.823 43.4583 335.266 41.8281 335.266 39.7344C335.266 37.9219 335.625 36.1406 336.344 34.3906C337.062 32.6406 338.089 31.3125 339.422 30.4062C340.766 29.4896 342.297 29.0312 344.016 29.0312C345.797 29.0312 347.208 29.5365 348.25 30.5469C349.292 31.5469 349.812 32.875 349.812 34.5312L347.031 34.7188C347.021 33.6667 346.714 32.8438 346.109 32.25C345.516 31.6562 344.729 31.3594 343.75 31.3594C342.615 31.3594 341.63 31.7188 340.797 32.4375C339.964 33.1562 339.307 34.25 338.828 35.7188C338.359 37.1771 338.125 38.5833 338.125 39.9375C338.125 41.3542 338.438 42.4167 339.062 43.125C339.688 43.8333 340.458 44.1875 341.375 44.1875C342.292 44.1875 343.167 43.8385 344 43.1406C344.844 42.4427 345.505 41.3802 345.984 39.9531ZM362.719 40.3594L365.469 40.6406C365.073 42.0052 364.161 43.3021 362.734 44.5312C361.318 45.7604 359.625 46.375 357.656 46.375C356.427 46.375 355.297 46.0938 354.266 45.5312C353.245 44.9583 352.464 44.1302 351.922 43.0469C351.391 41.9635 351.125 40.7292 351.125 39.3438C351.125 37.5312 351.542 35.776 352.375 34.0781C353.219 32.3698 354.307 31.1042 355.641 30.2812C356.974 29.4479 358.417 29.0312 359.969 29.0312C361.948 29.0312 363.526 29.6458 364.703 30.875C365.891 32.1042 366.484 33.7812 366.484 35.9062C366.484 36.7188 366.411 37.5521 366.266 38.4062H354.047C354.005 38.7292 353.984 39.0208 353.984 39.2812C353.984 40.8333 354.339 42.0208 355.047 42.8438C355.766 43.6562 356.641 44.0625 357.672 44.0625C358.641 44.0625 359.594 43.7448 360.531 43.1094C361.469 42.474 362.198 41.5573 362.719 40.3594ZM354.5 36.25H363.812C363.823 35.9583 363.828 35.75 363.828 35.625C363.828 34.2083 363.474 33.125 362.766 32.375C362.057 31.6146 361.146 31.2344 360.031 31.2344C358.823 31.2344 357.719 31.651 356.719 32.4844C355.729 33.3177 354.99 34.5729 354.5 36.25ZM375.859 52.3594L380.656 29.4062H383.266L382.781 31.7188C383.75 30.7083 384.615 30.0104 385.375 29.625C386.146 29.2292 386.958 29.0312 387.812 29.0312C389.396 29.0312 390.708 29.6094 391.75 30.7656C392.792 31.9115 393.312 33.5573 393.312 35.7031C393.312 37.4323 393.026 39.0104 392.453 40.4375C391.88 41.8542 391.177 42.9948 390.344 43.8594C389.51 44.724 388.667 45.3594 387.812 45.7656C386.958 46.1719 386.083 46.375 385.188 46.375C383.198 46.375 381.656 45.3646 380.562 43.3438L378.688 52.3594H375.859ZM381.453 39.2188C381.453 40.4583 381.542 41.3177 381.719 41.7969C381.979 42.474 382.406 43.0208 383 43.4375C383.594 43.8542 384.281 44.0625 385.062 44.0625C386.688 44.0625 388 43.151 389 41.3281C390 39.4948 390.5 37.625 390.5 35.7188C390.5 34.3125 390.161 33.2292 389.484 32.4688C388.818 31.6979 387.984 31.3125 386.984 31.3125C386.266 31.3125 385.599 31.5052 384.984 31.8906C384.37 32.2656 383.797 32.8333 383.266 33.5938C382.745 34.3438 382.312 35.2656 381.969 36.3594C381.625 37.4531 381.453 38.4062 381.453 39.2188ZM395.562 39.7031C395.562 36.4635 396.516 33.7812 398.422 31.6562C399.995 29.9062 402.057 29.0312 404.609 29.0312C406.609 29.0312 408.219 29.6562 409.438 30.9062C410.667 32.1562 411.281 33.8438 411.281 35.9688C411.281 37.875 410.896 39.651 410.125 41.2969C409.354 42.9323 408.255 44.1875 406.828 45.0625C405.411 45.9375 403.917 46.375 402.344 46.375C401.052 46.375 399.875 46.099 398.812 45.5469C397.76 44.9948 396.953 44.2135 396.391 43.2031C395.839 42.1927 395.562 41.026 395.562 39.7031ZM398.391 39.4219C398.391 40.9844 398.766 42.1719 399.516 42.9844C400.266 43.7865 401.219 44.1875 402.375 44.1875C402.979 44.1875 403.578 44.0677 404.172 43.8281C404.766 43.5781 405.318 43.2031 405.828 42.7031C406.339 42.2031 406.771 41.6354 407.125 41C407.49 40.3542 407.781 39.6615 408 38.9219C408.323 37.8906 408.484 36.901 408.484 35.9531C408.484 34.4531 408.104 33.2917 407.344 32.4688C406.594 31.6354 405.646 31.2188 404.5 31.2188C403.615 31.2188 402.807 31.4323 402.078 31.8594C401.349 32.276 400.688 32.8906 400.094 33.7031C399.51 34.5156 399.078 35.4635 398.797 36.5469C398.526 37.6198 398.391 38.5781 398.391 39.4219ZM416.891 26.2969L417.562 23.0938H420.375L419.703 26.2969H416.891ZM412.766 46L416.234 29.4062H419.062L415.594 46H412.766ZM420 46L423.469 29.4062H426.031L425.422 32.2969C426.536 31.1615 427.578 30.3333 428.547 29.8125C429.516 29.2917 430.505 29.0312 431.516 29.0312C432.859 29.0312 433.911 29.3958 434.672 30.125C435.443 30.8542 435.828 31.8281 435.828 33.0469C435.828 33.6615 435.693 34.6302 435.422 35.9531L433.312 46H430.484L432.688 35.4844C432.906 34.4635 433.016 33.7083 433.016 33.2188C433.016 32.6667 432.823 32.2188 432.438 31.875C432.062 31.5312 431.516 31.3594 430.797 31.3594C429.349 31.3594 428.057 31.8802 426.922 32.9219C425.797 33.9635 424.969 35.75 424.438 38.2812L422.828 46H420ZM444.422 43.7031L443.953 46.0156C443.276 46.1927 442.62 46.2812 441.984 46.2812C440.859 46.2812 439.964 46.0052 439.297 45.4531C438.797 45.0365 438.547 44.4688 438.547 43.75C438.547 43.3854 438.682 42.5469 438.953 41.2344L440.969 31.5938H438.734L439.188 29.4062H441.422L442.281 25.3281L445.516 23.375L444.25 29.4062H447.031L446.562 31.5938H443.797L441.875 40.7656C441.635 41.9323 441.516 42.6302 441.516 42.8594C441.516 43.1927 441.609 43.4479 441.797 43.625C441.995 43.8021 442.312 43.8906 442.75 43.8906C443.375 43.8906 443.932 43.8281 444.422 43.7031ZM456.016 46L459.031 31.5938H456.5L456.953 29.4062H459.484L459.969 27.0469C460.219 25.8698 460.474 25.0208 460.734 24.5C461.005 23.9792 461.438 23.5521 462.031 23.2188C462.635 22.875 463.453 22.7031 464.484 22.7031C465.203 22.7031 466.245 22.8542 467.609 23.1562L467.094 25.625C466.135 25.375 465.333 25.25 464.688 25.25C464.135 25.25 463.714 25.3906 463.422 25.6719C463.141 25.9427 462.896 26.5938 462.688 27.625L462.312 29.4062H465.469L465.016 31.5938H461.859L458.844 46H456.016ZM465.031 39.7031C465.031 36.4635 465.984 33.7812 467.891 31.6562C469.464 29.9062 471.526 29.0312 474.078 29.0312C476.078 29.0312 477.688 29.6562 478.906 30.9062C480.135 32.1562 480.75 33.8438 480.75 35.9688C480.75 37.875 480.365 39.651 479.594 41.2969C478.823 42.9323 477.724 44.1875 476.297 45.0625C474.88 45.9375 473.385 46.375 471.812 46.375C470.521 46.375 469.344 46.099 468.281 45.5469C467.229 44.9948 466.422 44.2135 465.859 43.2031C465.307 42.1927 465.031 41.026 465.031 39.7031ZM467.859 39.4219C467.859 40.9844 468.234 42.1719 468.984 42.9844C469.734 43.7865 470.688 44.1875 471.844 44.1875C472.448 44.1875 473.047 44.0677 473.641 43.8281C474.234 43.5781 474.786 43.2031 475.297 42.7031C475.807 42.2031 476.24 41.6354 476.594 41C476.958 40.3542 477.25 39.6615 477.469 38.9219C477.792 37.8906 477.953 36.901 477.953 35.9531C477.953 34.4531 477.573 33.2917 476.812 32.4688C476.062 31.6354 475.115 31.2188 473.969 31.2188C473.083 31.2188 472.276 31.4323 471.547 31.8594C470.818 32.276 470.156 32.8906 469.562 33.7031C468.979 34.5156 468.547 35.4635 468.266 36.5469C467.995 37.6198 467.859 38.5781 467.859 39.4219ZM482.344 46L485.812 29.4062H488.312L487.609 32.7969C488.464 31.5156 489.297 30.5677 490.109 29.9531C490.932 29.3385 491.771 29.0312 492.625 29.0312C493.188 29.0312 493.88 29.2344 494.703 29.6406L493.547 32.2656C493.057 31.9115 492.521 31.7344 491.938 31.7344C490.948 31.7344 489.932 32.2865 488.891 33.3906C487.849 34.4948 487.031 36.4792 486.438 39.3438L485.031 46H482.344ZM24.3281 77.3281L27.1562 77.1562C27.1562 77.9688 27.2812 78.6615 27.5312 79.2344C27.7812 79.8073 28.2396 80.276 28.9062 80.6406C29.5833 81.0052 30.3698 81.1875 31.2656 81.1875C32.5156 81.1875 33.4531 80.9375 34.0781 80.4375C34.7031 79.9375 35.0156 79.349 35.0156 78.6719C35.0156 78.1823 34.8281 77.7188 34.4531 77.2812C34.0677 76.8438 33.125 76.3073 31.625 75.6719C30.1354 75.026 29.1823 74.5729 28.7656 74.3125C28.0677 73.8854 27.5417 73.3854 27.1875 72.8125C26.8333 72.2292 26.6562 71.5625 26.6562 70.8125C26.6562 69.5 27.1771 68.375 28.2188 67.4375C29.2604 66.5 30.7188 66.0312 32.5938 66.0312C34.6771 66.0312 36.2604 66.5156 37.3438 67.4844C38.4375 68.4427 39.0052 69.7083 39.0469 71.2812L36.2812 71.4688C36.2396 70.4688 35.8854 69.6771 35.2188 69.0938C34.5521 68.5104 33.6094 68.2188 32.3906 68.2188C31.4115 68.2188 30.651 68.4427 30.1094 68.8906C29.5677 69.3385 29.2969 69.8229 29.2969 70.3438C29.2969 70.8646 29.5312 71.3229 30 71.7188C30.3125 71.9896 31.1198 72.4062 32.4219 72.9688C34.5885 73.9062 35.9531 74.6458 36.5156 75.1875C37.4115 76.0521 37.8594 77.1042 37.8594 78.3438C37.8594 79.1667 37.6042 79.974 37.0938 80.7656C36.5938 81.5573 35.8229 82.1927 34.7812 82.6719C33.75 83.1406 32.5312 83.375 31.125 83.375C29.2083 83.375 27.5781 82.901 26.2344 81.9531C24.8906 81.0052 24.2552 79.4635 24.3281 77.3281ZM40.0938 83L44.8906 60.0938H47.7031L44.7344 74.2969L52.9844 66.4062H56.7188L49.6406 72.5938L53.9219 83H50.8281L47.5156 74.4844L44.0781 77.4531L42.9219 83H40.0938ZM60.0781 63.2969L60.75 60.0938H63.5625L62.8906 63.2969H60.0781ZM55.9531 83L59.4219 66.4062H62.25L58.7812 83H55.9531ZM62.9688 83L67.75 60.0938H70.5781L65.7969 83H62.9688ZM70.0938 83L74.875 60.0938H77.7031L72.9219 83H70.0938ZM77.7031 77.3281L80.5312 77.1562C80.5312 77.9688 80.6562 78.6615 80.9062 79.2344C81.1562 79.8073 81.6146 80.276 82.2812 80.6406C82.9583 81.0052 83.7448 81.1875 84.6406 81.1875C85.8906 81.1875 86.8281 80.9375 87.4531 80.4375C88.0781 79.9375 88.3906 79.349 88.3906 78.6719C88.3906 78.1823 88.2031 77.7188 87.8281 77.2812C87.4427 76.8438 86.5 76.3073 85 75.6719C83.5104 75.026 82.5573 74.5729 82.1406 74.3125C81.4427 73.8854 80.9167 73.3854 80.5625 72.8125C80.2083 72.2292 80.0312 71.5625 80.0312 70.8125C80.0312 69.5 80.5521 68.375 81.5938 67.4375C82.6354 66.5 84.0938 66.0312 85.9688 66.0312C88.0521 66.0312 89.6354 66.5156 90.7188 67.4844C91.8125 68.4427 92.3802 69.7083 92.4219 71.2812L89.6562 71.4688C89.6146 70.4688 89.2604 69.6771 88.5938 69.0938C87.9271 68.5104 86.9844 68.2188 85.7656 68.2188C84.7865 68.2188 84.026 68.4427 83.4844 68.8906C82.9427 69.3385 82.6719 69.8229 82.6719 70.3438C82.6719 70.8646 82.9062 71.3229 83.375 71.7188C83.6875 71.9896 84.4948 72.4062 85.7969 72.9688C87.9635 73.9062 89.3281 74.6458 89.8906 75.1875C90.7865 76.0521 91.2344 77.1042 91.2344 78.3438C91.2344 79.1667 90.9792 79.974 90.4688 80.7656C89.9688 81.5573 89.1979 82.1927 88.1562 82.6719C87.125 83.1406 85.9062 83.375 84.5 83.375C82.5833 83.375 80.9531 82.901 79.6094 81.9531C78.2656 81.0052 77.6302 79.4635 77.7031 77.3281ZM113.531 80.9375C112.552 81.7812 111.609 82.401 110.703 82.7969C109.797 83.1823 108.828 83.375 107.797 83.375C106.266 83.375 105.031 82.9271 104.094 82.0312C103.156 81.125 102.688 79.9688 102.688 78.5625C102.688 77.6354 102.896 76.8177 103.312 76.1094C103.74 75.3906 104.302 74.8177 105 74.3906C105.698 73.9531 106.552 73.6406 107.562 73.4531C108.198 73.3281 109.401 73.2292 111.172 73.1562C112.953 73.0833 114.229 72.8958 115 72.5938C115.219 71.8229 115.328 71.1823 115.328 70.6719C115.328 70.0156 115.089 69.5 114.609 69.125C113.953 68.6042 112.995 68.3438 111.734 68.3438C110.547 68.3438 109.573 68.6094 108.812 69.1406C108.062 69.6615 107.516 70.4062 107.172 71.375L104.312 71.125C104.896 69.4792 105.818 68.2188 107.078 67.3438C108.349 66.4688 109.948 66.0312 111.875 66.0312C113.927 66.0312 115.552 66.5208 116.75 67.5C117.667 68.2292 118.125 69.1771 118.125 70.3438C118.125 71.2292 117.995 72.2552 117.734 73.4219L116.812 77.5469C116.521 78.8594 116.375 79.9271 116.375 80.75C116.375 81.2708 116.49 82.0208 116.719 83H113.859C113.703 82.4583 113.594 81.7708 113.531 80.9375ZM114.578 74.5938C114.182 74.75 113.755 74.8698 113.297 74.9531C112.849 75.0365 112.094 75.125 111.031 75.2188C109.385 75.3646 108.224 75.5521 107.547 75.7812C106.87 76 106.359 76.3542 106.016 76.8438C105.672 77.3333 105.5 77.875 105.5 78.4688C105.5 79.2604 105.771 79.9115 106.312 80.4219C106.865 80.9323 107.646 81.1875 108.656 81.1875C109.594 81.1875 110.495 80.9427 111.359 80.4531C112.224 79.9531 112.906 79.2604 113.406 78.375C113.906 77.4896 114.297 76.2292 114.578 74.5938ZM120.156 83L123.625 66.4062H126.188L125.578 69.2969C126.693 68.1615 127.734 67.3333 128.703 66.8125C129.672 66.2917 130.661 66.0312 131.672 66.0312C133.016 66.0312 134.068 66.3958 134.828 67.125C135.599 67.8542 135.984 68.8281 135.984 70.0469C135.984 70.6615 135.849 71.6302 135.578 72.9531L133.469 83H130.641L132.844 72.4844C133.062 71.4635 133.172 70.7083 133.172 70.2188C133.172 69.6667 132.979 69.2188 132.594 68.875C132.219 68.5312 131.672 68.3594 130.953 68.3594C129.505 68.3594 128.214 68.8802 127.078 69.9219C125.953 70.9635 125.125 72.75 124.594 75.2812L122.984 83H120.156ZM149.156 80.5938C147.542 82.4479 145.854 83.375 144.094 83.375C142.521 83.375 141.208 82.7969 140.156 81.6406C139.115 80.474 138.594 78.7865 138.594 76.5781C138.594 74.5573 139.005 72.7135 139.828 71.0469C140.661 69.3698 141.698 68.1146 142.938 67.2812C144.188 66.4479 145.438 66.0312 146.688 66.0312C148.75 66.0312 150.307 67.026 151.359 69.0156L153.234 60.0938H156.047L151.266 83H148.656L149.156 80.5938ZM141.406 76.0469C141.406 77.2031 141.521 78.1146 141.75 78.7812C141.979 79.4479 142.37 80.0052 142.922 80.4531C143.474 80.8906 144.135 81.1094 144.906 81.1094C146.188 81.1094 147.349 80.4427 148.391 79.1094C149.786 77.3385 150.484 75.151 150.484 72.5469C150.484 71.2344 150.141 70.2083 149.453 69.4688C148.766 68.7292 147.901 68.3594 146.859 68.3594C146.182 68.3594 145.562 68.5104 145 68.8125C144.448 69.1146 143.896 69.6302 143.344 70.3594C142.802 71.0781 142.344 71.9948 141.969 73.1094C141.594 74.224 141.406 75.2031 141.406 76.0469ZM176.141 76.9531L178.969 77.25C178.26 79.3229 177.25 80.8646 175.938 81.875C174.635 82.875 173.151 83.375 171.484 83.375C169.682 83.375 168.219 82.7917 167.094 81.625C165.979 80.4583 165.422 78.8281 165.422 76.7344C165.422 74.9219 165.781 73.1406 166.5 71.3906C167.219 69.6406 168.245 68.3125 169.578 67.4062C170.922 66.4896 172.453 66.0312 174.172 66.0312C175.953 66.0312 177.365 66.5365 178.406 67.5469C179.448 68.5469 179.969 69.875 179.969 71.5312L177.188 71.7188C177.177 70.6667 176.87 69.8438 176.266 69.25C175.672 68.6562 174.885 68.3594 173.906 68.3594C172.771 68.3594 171.786 68.7188 170.953 69.4375C170.12 70.1562 169.464 71.25 168.984 72.7188C168.516 74.1771 168.281 75.5833 168.281 76.9375C168.281 78.3542 168.594 79.4167 169.219 80.125C169.844 80.8333 170.615 81.1875 171.531 81.1875C172.448 81.1875 173.323 80.8385 174.156 80.1406C175 79.4427 175.661 78.3802 176.141 76.9531ZM181.188 76.7031C181.188 73.4635 182.141 70.7812 184.047 68.6562C185.62 66.9062 187.682 66.0312 190.234 66.0312C192.234 66.0312 193.844 66.6562 195.062 67.9062C196.292 69.1562 196.906 70.8438 196.906 72.9688C196.906 74.875 196.521 76.651 195.75 78.2969C194.979 79.9323 193.88 81.1875 192.453 82.0625C191.036 82.9375 189.542 83.375 187.969 83.375C186.677 83.375 185.5 83.099 184.438 82.5469C183.385 81.9948 182.578 81.2135 182.016 80.2031C181.464 79.1927 181.188 78.026 181.188 76.7031ZM184.016 76.4219C184.016 77.9844 184.391 79.1719 185.141 79.9844C185.891 80.7865 186.844 81.1875 188 81.1875C188.604 81.1875 189.203 81.0677 189.797 80.8281C190.391 80.5781 190.943 80.2031 191.453 79.7031C191.964 79.2031 192.396 78.6354 192.75 78C193.115 77.3542 193.406 76.6615 193.625 75.9219C193.948 74.8906 194.109 73.901 194.109 72.9531C194.109 71.4531 193.729 70.2917 192.969 69.4688C192.219 68.6354 191.271 68.2188 190.125 68.2188C189.24 68.2188 188.432 68.4323 187.703 68.8594C186.974 69.276 186.312 69.8906 185.719 70.7031C185.135 71.5156 184.703 72.4635 184.422 73.5469C184.151 74.6198 184.016 75.5781 184.016 76.4219ZM198.5 83L201.969 66.4062H204.531L203.922 69.2969C205.036 68.1615 206.078 67.3333 207.047 66.8125C208.016 66.2917 209.005 66.0312 210.016 66.0312C211.359 66.0312 212.411 66.3958 213.172 67.125C213.943 67.8542 214.328 68.8281 214.328 70.0469C214.328 70.6615 214.193 71.6302 213.922 72.9531L211.812 83H208.984L211.188 72.4844C211.406 71.4635 211.516 70.7083 211.516 70.2188C211.516 69.6667 211.323 69.2188 210.938 68.875C210.562 68.5312 210.016 68.3594 209.297 68.3594C207.849 68.3594 206.557 68.8802 205.422 69.9219C204.297 70.9635 203.469 72.75 202.938 75.2812L201.328 83H198.5ZM227.5 80.5938C225.885 82.4479 224.198 83.375 222.438 83.375C220.865 83.375 219.552 82.7969 218.5 81.6406C217.458 80.474 216.938 78.7865 216.938 76.5781C216.938 74.5573 217.349 72.7135 218.172 71.0469C219.005 69.3698 220.042 68.1146 221.281 67.2812C222.531 66.4479 223.781 66.0312 225.031 66.0312C227.094 66.0312 228.651 67.026 229.703 69.0156L231.578 60.0938H234.391L229.609 83H227L227.5 80.5938ZM219.75 76.0469C219.75 77.2031 219.865 78.1146 220.094 78.7812C220.323 79.4479 220.714 80.0052 221.266 80.4531C221.818 80.8906 222.479 81.1094 223.25 81.1094C224.531 81.1094 225.693 80.4427 226.734 79.1094C228.13 77.3385 228.828 75.151 228.828 72.5469C228.828 71.2344 228.484 70.2083 227.797 69.4688C227.109 68.7292 226.245 68.3594 225.203 68.3594C224.526 68.3594 223.906 68.5104 223.344 68.8125C222.792 69.1146 222.24 69.6302 221.688 70.3594C221.146 71.0781 220.688 71.9948 220.312 73.1094C219.938 74.224 219.75 75.2031 219.75 76.0469ZM245.453 80C243.464 82.25 241.427 83.375 239.344 83.375C238.062 83.375 237.026 83.0104 236.234 82.2812C235.453 81.5417 235.062 80.6406 235.062 79.5781C235.062 78.8802 235.24 77.6823 235.594 75.9844L237.594 66.4062H240.422L238.203 77.0156C238.016 77.901 237.922 78.5885 237.922 79.0781C237.922 79.7031 238.109 80.1927 238.484 80.5469C238.87 80.8906 239.432 81.0625 240.172 81.0625C240.964 81.0625 241.734 80.8698 242.484 80.4844C243.245 80.099 243.896 79.5781 244.438 78.9219C244.99 78.2656 245.438 77.4896 245.781 76.5938C246.01 76.0208 246.276 75.0156 246.578 73.5781L248.078 66.4062H250.906L247.438 83H244.828L245.453 80ZM263.391 76.9531L266.219 77.25C265.51 79.3229 264.5 80.8646 263.188 81.875C261.885 82.875 260.401 83.375 258.734 83.375C256.932 83.375 255.469 82.7917 254.344 81.625C253.229 80.4583 252.672 78.8281 252.672 76.7344C252.672 74.9219 253.031 73.1406 253.75 71.3906C254.469 69.6406 255.495 68.3125 256.828 67.4062C258.172 66.4896 259.703 66.0312 261.422 66.0312C263.203 66.0312 264.615 66.5365 265.656 67.5469C266.698 68.5469 267.219 69.875 267.219 71.5312L264.438 71.7188C264.427 70.6667 264.12 69.8438 263.516 69.25C262.922 68.6562 262.135 68.3594 261.156 68.3594C260.021 68.3594 259.036 68.7188 258.203 69.4375C257.37 70.1562 256.714 71.25 256.234 72.7188C255.766 74.1771 255.531 75.5833 255.531 76.9375C255.531 78.3542 255.844 79.4167 256.469 80.125C257.094 80.8333 257.865 81.1875 258.781 81.1875C259.698 81.1875 260.573 80.8385 261.406 80.1406C262.25 79.4427 262.911 78.3802 263.391 76.9531ZM274.547 80.7031L274.078 83.0156C273.401 83.1927 272.745 83.2812 272.109 83.2812C270.984 83.2812 270.089 83.0052 269.422 82.4531C268.922 82.0365 268.672 81.4688 268.672 80.75C268.672 80.3854 268.807 79.5469 269.078 78.2344L271.094 68.5938H268.859L269.312 66.4062H271.547L272.406 62.3281L275.641 60.375L274.375 66.4062H277.156L276.688 68.5938H273.922L272 77.7656C271.76 78.9323 271.641 79.6302 271.641 79.8594C271.641 80.1927 271.734 80.4479 271.922 80.625C272.12 80.8021 272.438 80.8906 272.875 80.8906C273.5 80.8906 274.057 80.8281 274.547 80.7031ZM289.766 63.2969L290.438 60.0938H293.25L292.578 63.2969H289.766ZM285.641 83L289.109 66.4062H291.938L288.469 83H285.641ZM292.875 83L296.344 66.4062H298.906L298.297 69.2969C299.411 68.1615 300.453 67.3333 301.422 66.8125C302.391 66.2917 303.38 66.0312 304.391 66.0312C305.734 66.0312 306.786 66.3958 307.547 67.125C308.318 67.8542 308.703 68.8281 308.703 70.0469C308.703 70.6615 308.568 71.6302 308.297 72.9531L306.188 83H303.359L305.562 72.4844C305.781 71.4635 305.891 70.7083 305.891 70.2188C305.891 69.6667 305.698 69.2188 305.312 68.875C304.938 68.5312 304.391 68.3594 303.672 68.3594C302.224 68.3594 300.932 68.8802 299.797 69.9219C298.672 70.9635 297.844 72.75 297.312 75.2812L295.703 83H292.875ZM326.203 80.7031L325.734 83.0156C325.057 83.1927 324.401 83.2812 323.766 83.2812C322.641 83.2812 321.745 83.0052 321.078 82.4531C320.578 82.0365 320.328 81.4688 320.328 80.75C320.328 80.3854 320.464 79.5469 320.734 78.2344L322.75 68.5938H320.516L320.969 66.4062H323.203L324.062 62.3281L327.297 60.375L326.031 66.4062H328.812L328.344 68.5938H325.578L323.656 77.7656C323.417 78.9323 323.297 79.6302 323.297 79.8594C323.297 80.1927 323.391 80.4479 323.578 80.625C323.776 80.8021 324.094 80.8906 324.531 80.8906C325.156 80.8906 325.714 80.8281 326.203 80.7031ZM328.5 83L333.281 60.0938H336.109L334.281 68.8906C335.333 67.8698 336.312 67.1406 337.219 66.7031C338.125 66.2552 339.057 66.0312 340.016 66.0312C341.391 66.0312 342.458 66.3958 343.219 67.125C343.979 67.8438 344.359 68.7969 344.359 69.9844C344.359 70.5677 344.193 71.6406 343.859 73.2031L341.812 83H338.984L341.094 72.9531C341.396 71.4948 341.547 70.5781 341.547 70.2031C341.547 69.6615 341.359 69.2188 340.984 68.875C340.609 68.5312 340.068 68.3594 339.359 68.3594C338.339 68.3594 337.365 68.6302 336.438 69.1719C335.51 69.7031 334.781 70.4375 334.25 71.375C333.729 72.3021 333.25 73.8021 332.812 75.875L331.328 83H328.5ZM358.5 77.3594L361.25 77.6406C360.854 79.0052 359.943 80.3021 358.516 81.5312C357.099 82.7604 355.406 83.375 353.438 83.375C352.208 83.375 351.078 83.0938 350.047 82.5312C349.026 81.9583 348.245 81.1302 347.703 80.0469C347.172 78.9635 346.906 77.7292 346.906 76.3438C346.906 74.5312 347.323 72.776 348.156 71.0781C349 69.3698 350.089 68.1042 351.422 67.2812C352.755 66.4479 354.198 66.0312 355.75 66.0312C357.729 66.0312 359.307 66.6458 360.484 67.875C361.672 69.1042 362.266 70.7812 362.266 72.9062C362.266 73.7188 362.193 74.5521 362.047 75.4062H349.828C349.786 75.7292 349.766 76.0208 349.766 76.2812C349.766 77.8333 350.12 79.0208 350.828 79.8438C351.547 80.6562 352.422 81.0625 353.453 81.0625C354.422 81.0625 355.375 80.7448 356.312 80.1094C357.25 79.474 357.979 78.5573 358.5 77.3594ZM350.281 73.25H359.594C359.604 72.9583 359.609 72.75 359.609 72.625C359.609 71.2083 359.255 70.125 358.547 69.375C357.839 68.6146 356.927 68.2344 355.812 68.2344C354.604 68.2344 353.5 68.651 352.5 69.4844C351.51 70.3177 350.771 71.5729 350.281 73.25ZM373.031 83L377.812 60.0938H380.641L378.938 68.2812C379.833 67.4583 380.646 66.8802 381.375 66.5469C382.104 66.2031 382.865 66.0312 383.656 66.0312C385.208 66.0312 386.5 66.6094 387.531 67.7656C388.573 68.9219 389.094 70.6042 389.094 72.8125C389.094 74.2812 388.885 75.625 388.469 76.8438C388.052 78.0625 387.536 79.0885 386.922 79.9219C386.307 80.7448 385.672 81.4062 385.016 81.9062C384.359 82.3958 383.688 82.7604 383 83C382.312 83.25 381.651 83.375 381.016 83.375C379.922 83.375 378.958 83.0885 378.125 82.5156C377.292 81.9323 376.641 81.0469 376.172 79.8594L375.516 83H373.031ZM377.219 76.1875L377.203 76.7188C377.203 78.1354 377.542 79.2135 378.219 79.9531C378.896 80.6927 379.74 81.0625 380.75 81.0625C381.74 81.0625 382.646 80.7188 383.469 80.0312C384.302 79.3333 384.984 78.25 385.516 76.7812C386.047 75.3125 386.312 73.9583 386.312 72.7188C386.312 71.3229 385.974 70.2396 385.297 69.4688C384.63 68.6979 383.802 68.3125 382.812 68.3125C381.792 68.3125 380.854 68.7083 380 69.5C379.146 70.2812 378.432 71.4896 377.859 73.125C377.432 74.3438 377.219 75.3646 377.219 76.1875ZM402.031 80.9375C401.052 81.7812 400.109 82.401 399.203 82.7969C398.297 83.1823 397.328 83.375 396.297 83.375C394.766 83.375 393.531 82.9271 392.594 82.0312C391.656 81.125 391.188 79.9688 391.188 78.5625C391.188 77.6354 391.396 76.8177 391.812 76.1094C392.24 75.3906 392.802 74.8177 393.5 74.3906C394.198 73.9531 395.052 73.6406 396.062 73.4531C396.698 73.3281 397.901 73.2292 399.672 73.1562C401.453 73.0833 402.729 72.8958 403.5 72.5938C403.719 71.8229 403.828 71.1823 403.828 70.6719C403.828 70.0156 403.589 69.5 403.109 69.125C402.453 68.6042 401.495 68.3438 400.234 68.3438C399.047 68.3438 398.073 68.6094 397.312 69.1406C396.562 69.6615 396.016 70.4062 395.672 71.375L392.812 71.125C393.396 69.4792 394.318 68.2188 395.578 67.3438C396.849 66.4688 398.448 66.0312 400.375 66.0312C402.427 66.0312 404.052 66.5208 405.25 67.5C406.167 68.2292 406.625 69.1771 406.625 70.3438C406.625 71.2292 406.495 72.2552 406.234 73.4219L405.312 77.5469C405.021 78.8594 404.875 79.9271 404.875 80.75C404.875 81.2708 404.99 82.0208 405.219 83H402.359C402.203 82.4583 402.094 81.7708 402.031 80.9375ZM403.078 74.5938C402.682 74.75 402.255 74.8698 401.797 74.9531C401.349 75.0365 400.594 75.125 399.531 75.2188C397.885 75.3646 396.724 75.5521 396.047 75.7812C395.37 76 394.859 76.3542 394.516 76.8438C394.172 77.3333 394 77.875 394 78.4688C394 79.2604 394.271 79.9115 394.812 80.4219C395.365 80.9323 396.146 81.1875 397.156 81.1875C398.094 81.1875 398.995 80.9427 399.859 80.4531C400.724 79.9531 401.406 79.2604 401.906 78.375C402.406 77.4896 402.797 76.2292 403.078 74.5938ZM408.656 83L412.125 66.4062H414.688L414.078 69.2969C415.193 68.1615 416.234 67.3333 417.203 66.8125C418.172 66.2917 419.161 66.0312 420.172 66.0312C421.516 66.0312 422.568 66.3958 423.328 67.125C424.099 67.8542 424.484 68.8281 424.484 70.0469C424.484 70.6615 424.349 71.6302 424.078 72.9531L421.969 83H419.141L421.344 72.4844C421.562 71.4635 421.672 70.7083 421.672 70.2188C421.672 69.6667 421.479 69.2188 421.094 68.875C420.719 68.5312 420.172 68.3594 419.453 68.3594C418.005 68.3594 416.714 68.8802 415.578 69.9219C414.453 70.9635 413.625 72.75 413.094 75.2812L411.484 83H408.656ZM426.5 83L431.297 60.0938H434.109L431.141 74.2969L439.391 66.4062H443.125L436.047 72.5938L440.328 83H437.234L433.922 74.4844L430.484 77.4531L429.328 83H426.5ZM446.484 63.2969L447.156 60.0938H449.969L449.297 63.2969H446.484ZM442.359 83L445.828 66.4062H448.656L445.188 83H442.359ZM449.594 83L453.062 66.4062H455.625L455.016 69.2969C456.13 68.1615 457.172 67.3333 458.141 66.8125C459.109 66.2917 460.099 66.0312 461.109 66.0312C462.453 66.0312 463.505 66.3958 464.266 67.125C465.036 67.8542 465.422 68.8281 465.422 70.0469C465.422 70.6615 465.286 71.6302 465.016 72.9531L462.906 83H460.078L462.281 72.4844C462.5 71.4635 462.609 70.7083 462.609 70.2188C462.609 69.6667 462.417 69.2188 462.031 68.875C461.656 68.5312 461.109 68.3594 460.391 68.3594C458.943 68.3594 457.651 68.8802 456.516 69.9219C455.391 70.9635 454.562 72.75 454.031 75.2812L452.422 83H449.594ZM467.25 84.5L470.109 84.7656C470.089 85.4115 470.167 85.8958 470.344 86.2188C470.521 86.5417 470.802 86.7917 471.188 86.9688C471.698 87.1979 472.359 87.3125 473.172 87.3125C474.88 87.3125 476.109 86.8698 476.859 85.9844C477.349 85.3906 477.802 84.099 478.219 82.1094L478.5 80.7656C477.031 82.2552 475.469 83 473.812 83C472.135 83 470.729 82.3854 469.594 81.1562C468.469 79.9167 467.906 78.1667 467.906 75.9062C467.906 74.0417 468.349 72.3281 469.234 70.7656C470.13 69.2031 471.193 68.026 472.422 67.2344C473.651 66.4323 474.917 66.0312 476.219 66.0312C478.396 66.0312 480.073 67.0625 481.25 69.125L481.812 66.4062H484.406L481.062 82.4219C480.698 84.1823 480.219 85.5521 479.625 86.5312C479.031 87.5208 478.203 88.2865 477.141 88.8281C476.089 89.3698 474.87 89.6406 473.484 89.6406C472.151 89.6406 471 89.4688 470.031 89.125C469.073 88.7812 468.354 88.276 467.875 87.6094C467.406 86.9531 467.172 86.1979 467.172 85.3438C467.172 85.0833 467.198 84.8021 467.25 84.5ZM470.781 75.6562C470.781 76.7917 470.891 77.6458 471.109 78.2188C471.422 79.0208 471.865 79.6354 472.438 80.0625C473.021 80.4792 473.667 80.6875 474.375 80.6875C475.302 80.6875 476.224 80.3646 477.141 79.7188C478.057 79.0625 478.797 78.0521 479.359 76.6875C479.932 75.3229 480.219 74.0208 480.219 72.7812C480.219 71.4167 479.839 70.3333 479.078 69.5312C478.328 68.7188 477.396 68.3125 476.281 68.3125C475.594 68.3125 474.927 68.5 474.281 68.875C473.635 69.2396 473.031 69.8021 472.469 70.5625C471.917 71.3125 471.495 72.2135 471.203 73.2656C470.922 74.3177 470.781 75.1146 470.781 75.6562ZM505.312 80.9375C504.333 81.7812 503.391 82.401 502.484 82.7969C501.578 83.1823 500.609 83.375 499.578 83.375C498.047 83.375 496.812 82.9271 495.875 82.0312C494.938 81.125 494.469 79.9688 494.469 78.5625C494.469 77.6354 494.677 76.8177 495.094 76.1094C495.521 75.3906 496.083 74.8177 496.781 74.3906C497.479 73.9531 498.333 73.6406 499.344 73.4531C499.979 73.3281 501.182 73.2292 502.953 73.1562C504.734 73.0833 506.01 72.8958 506.781 72.5938C507 71.8229 507.109 71.1823 507.109 70.6719C507.109 70.0156 506.87 69.5 506.391 69.125C505.734 68.6042 504.776 68.3438 503.516 68.3438C502.328 68.3438 501.354 68.6094 500.594 69.1406C499.844 69.6615 499.297 70.4062 498.953 71.375L496.094 71.125C496.677 69.4792 497.599 68.2188 498.859 67.3438C500.13 66.4688 501.729 66.0312 503.656 66.0312C505.708 66.0312 507.333 66.5208 508.531 67.5C509.448 68.2292 509.906 69.1771 509.906 70.3438C509.906 71.2292 509.776 72.2552 509.516 73.4219L508.594 77.5469C508.302 78.8594 508.156 79.9271 508.156 80.75C508.156 81.2708 508.271 82.0208 508.5 83H505.641C505.484 82.4583 505.375 81.7708 505.312 80.9375ZM506.359 74.5938C505.964 74.75 505.536 74.8698 505.078 74.9531C504.63 75.0365 503.875 75.125 502.812 75.2188C501.167 75.3646 500.005 75.5521 499.328 75.7812C498.651 76 498.141 76.3542 497.797 76.8438C497.453 77.3333 497.281 77.875 497.281 78.4688C497.281 79.2604 497.552 79.9115 498.094 80.4219C498.646 80.9323 499.427 81.1875 500.438 81.1875C501.375 81.1875 502.276 80.9427 503.141 80.4531C504.005 79.9531 504.688 79.2604 505.188 78.375C505.688 77.4896 506.078 76.2292 506.359 74.5938ZM511.938 83L515.406 66.4062H517.969L517.359 69.2969C518.474 68.1615 519.516 67.3333 520.484 66.8125C521.453 66.2917 522.443 66.0312 523.453 66.0312C524.797 66.0312 525.849 66.3958 526.609 67.125C527.38 67.8542 527.766 68.8281 527.766 70.0469C527.766 70.6615 527.63 71.6302 527.359 72.9531L525.25 83H522.422L524.625 72.4844C524.844 71.4635 524.953 70.7083 524.953 70.2188C524.953 69.6667 524.76 69.2188 524.375 68.875C524 68.5312 523.453 68.3594 522.734 68.3594C521.286 68.3594 519.995 68.8802 518.859 69.9219C517.734 70.9635 516.906 72.75 516.375 75.2812L514.766 83H511.938ZM540.938 80.5938C539.323 82.4479 537.635 83.375 535.875 83.375C534.302 83.375 532.99 82.7969 531.938 81.6406C530.896 80.474 530.375 78.7865 530.375 76.5781C530.375 74.5573 530.786 72.7135 531.609 71.0469C532.443 69.3698 533.479 68.1146 534.719 67.2812C535.969 66.4479 537.219 66.0312 538.469 66.0312C540.531 66.0312 542.089 67.026 543.141 69.0156L545.016 60.0938H547.828L543.047 83H540.438L540.938 80.5938ZM533.188 76.0469C533.188 77.2031 533.302 78.1146 533.531 78.7812C533.76 79.4479 534.151 80.0052 534.703 80.4531C535.255 80.8906 535.917 81.1094 536.688 81.1094C537.969 81.1094 539.13 80.4427 540.172 79.1094C541.568 77.3385 542.266 75.151 542.266 72.5469C542.266 71.2344 541.922 70.2083 541.234 69.4688C540.547 68.7292 539.682 68.3594 538.641 68.3594C537.964 68.3594 537.344 68.5104 536.781 68.8125C536.229 69.1146 535.677 69.6302 535.125 70.3594C534.583 71.0781 534.125 71.9948 533.75 73.1094C533.375 74.224 533.188 75.2031 533.188 76.0469ZM24.4531 120L27.4688 105.594H24.9375L25.3906 103.406H27.9219L28.4062 101.047C28.6562 99.8698 28.9115 99.0208 29.1719 98.5C29.4427 97.9792 29.875 97.5521 30.4688 97.2188C31.0729 96.875 31.8906 96.7031 32.9219 96.7031C33.6406 96.7031 34.6823 96.8542 36.0469 97.1562L35.5312 99.625C34.5729 99.375 33.7708 99.25 33.125 99.25C32.5729 99.25 32.151 99.3906 31.8594 99.6719C31.5781 99.9427 31.3333 100.594 31.125 101.625L30.75 103.406H33.9062L33.4531 105.594H30.2969L27.2812 120H24.4531ZM36.9844 100.297L37.6562 97.0938H40.4688L39.7969 100.297H36.9844ZM32.8594 120L36.3281 103.406H39.1562L35.6875 120H32.8594ZM40.0938 120L43.5625 103.406H46.125L45.5156 106.297C46.6302 105.161 47.6719 104.333 48.6406 103.812C49.6094 103.292 50.599 103.031 51.6094 103.031C52.9531 103.031 54.0052 103.396 54.7656 104.125C55.5365 104.854 55.9219 105.828 55.9219 107.047C55.9219 107.661 55.7865 108.63 55.5156 109.953L53.4062 120H50.5781L52.7812 109.484C53 108.464 53.1094 107.708 53.1094 107.219C53.1094 106.667 52.9167 106.219 52.5312 105.875C52.1562 105.531 51.6094 105.359 50.8906 105.359C49.4427 105.359 48.151 105.88 47.0156 106.922C45.8906 107.964 45.0625 109.75 44.5312 112.281L42.9219 120H40.0938ZM69.0938 117.938C68.1146 118.781 67.1719 119.401 66.2656 119.797C65.3594 120.182 64.3906 120.375 63.3594 120.375C61.8281 120.375 60.5938 119.927 59.6562 119.031C58.7188 118.125 58.25 116.969 58.25 115.562C58.25 114.635 58.4583 113.818 58.875 113.109C59.3021 112.391 59.8646 111.818 60.5625 111.391C61.2604 110.953 62.1146 110.641 63.125 110.453C63.7604 110.328 64.9635 110.229 66.7344 110.156C68.5156 110.083 69.7917 109.896 70.5625 109.594C70.7812 108.823 70.8906 108.182 70.8906 107.672C70.8906 107.016 70.651 106.5 70.1719 106.125C69.5156 105.604 68.5573 105.344 67.2969 105.344C66.1094 105.344 65.1354 105.609 64.375 106.141C63.625 106.661 63.0781 107.406 62.7344 108.375L59.875 108.125C60.4583 106.479 61.3802 105.219 62.6406 104.344C63.9115 103.469 65.5104 103.031 67.4375 103.031C69.4896 103.031 71.1146 103.521 72.3125 104.5C73.2292 105.229 73.6875 106.177 73.6875 107.344C73.6875 108.229 73.5573 109.255 73.2969 110.422L72.375 114.547C72.0833 115.859 71.9375 116.927 71.9375 117.75C71.9375 118.271 72.0521 119.021 72.2812 120H69.4219C69.2656 119.458 69.1562 118.771 69.0938 117.938ZM70.1406 111.594C69.7448 111.75 69.3177 111.87 68.8594 111.953C68.4115 112.036 67.6562 112.125 66.5938 112.219C64.9479 112.365 63.7865 112.552 63.1094 112.781C62.4323 113 61.9219 113.354 61.5781 113.844C61.2344 114.333 61.0625 114.875 61.0625 115.469C61.0625 116.26 61.3333 116.911 61.875 117.422C62.4271 117.932 63.2083 118.188 64.2188 118.188C65.1562 118.188 66.0573 117.943 66.9219 117.453C67.7865 116.953 68.4688 116.26 68.9688 115.375C69.4688 114.49 69.8594 113.229 70.1406 111.594ZM75.7188 120L79.1875 103.406H81.75L81.1406 106.297C82.2552 105.161 83.2969 104.333 84.2656 103.812C85.2344 103.292 86.224 103.031 87.2344 103.031C88.5781 103.031 89.6302 103.396 90.3906 104.125C91.1615 104.854 91.5469 105.828 91.5469 107.047C91.5469 107.661 91.4115 108.63 91.1406 109.953L89.0312 120H86.2031L88.4062 109.484C88.625 108.464 88.7344 107.708 88.7344 107.219C88.7344 106.667 88.5417 106.219 88.1562 105.875C87.7812 105.531 87.2344 105.359 86.5156 105.359C85.0677 105.359 83.776 105.88 82.6406 106.922C81.5156 107.964 80.6875 109.75 80.1562 112.281L78.5469 120H75.7188ZM104.984 113.953L107.812 114.25C107.104 116.323 106.094 117.865 104.781 118.875C103.479 119.875 101.995 120.375 100.328 120.375C98.526 120.375 97.0625 119.792 95.9375 118.625C94.8229 117.458 94.2656 115.828 94.2656 113.734C94.2656 111.922 94.625 110.141 95.3438 108.391C96.0625 106.641 97.0885 105.312 98.4219 104.406C99.7656 103.49 101.297 103.031 103.016 103.031C104.797 103.031 106.208 103.536 107.25 104.547C108.292 105.547 108.812 106.875 108.812 108.531L106.031 108.719C106.021 107.667 105.714 106.844 105.109 106.25C104.516 105.656 103.729 105.359 102.75 105.359C101.615 105.359 100.63 105.719 99.7969 106.438C98.9635 107.156 98.3073 108.25 97.8281 109.719C97.3594 111.177 97.125 112.583 97.125 113.938C97.125 115.354 97.4375 116.417 98.0625 117.125C98.6875 117.833 99.4583 118.188 100.375 118.188C101.292 118.188 102.167 117.839 103 117.141C103.844 116.443 104.505 115.38 104.984 113.953ZM121.719 114.359L124.469 114.641C124.073 116.005 123.161 117.302 121.734 118.531C120.318 119.76 118.625 120.375 116.656 120.375C115.427 120.375 114.297 120.094 113.266 119.531C112.245 118.958 111.464 118.13 110.922 117.047C110.391 115.964 110.125 114.729 110.125 113.344C110.125 111.531 110.542 109.776 111.375 108.078C112.219 106.37 113.307 105.104 114.641 104.281C115.974 103.448 117.417 103.031 118.969 103.031C120.948 103.031 122.526 103.646 123.703 104.875C124.891 106.104 125.484 107.781 125.484 109.906C125.484 110.719 125.411 111.552 125.266 112.406H113.047C113.005 112.729 112.984 113.021 112.984 113.281C112.984 114.833 113.339 116.021 114.047 116.844C114.766 117.656 115.641 118.062 116.672 118.062C117.641 118.062 118.594 117.745 119.531 117.109C120.469 116.474 121.198 115.557 121.719 114.359ZM113.5 110.25H122.812C122.823 109.958 122.828 109.75 122.828 109.625C122.828 108.208 122.474 107.125 121.766 106.375C121.057 105.615 120.146 105.234 119.031 105.234C117.823 105.234 116.719 105.651 115.719 106.484C114.729 107.318 113.99 108.573 113.5 110.25ZM140.266 100.297L140.938 97.0938H143.75L143.078 100.297H140.266ZM136.141 120L139.609 103.406H142.438L138.969 120H136.141ZM143.375 120L146.844 103.406H149.406L148.797 106.297C149.911 105.161 150.953 104.333 151.922 103.812C152.891 103.292 153.88 103.031 154.891 103.031C156.234 103.031 157.286 103.396 158.047 104.125C158.818 104.854 159.203 105.828 159.203 107.047C159.203 107.661 159.068 108.63 158.797 109.953L156.688 120H153.859L156.062 109.484C156.281 108.464 156.391 107.708 156.391 107.219C156.391 106.667 156.198 106.219 155.812 105.875C155.438 105.531 154.891 105.359 154.172 105.359C152.724 105.359 151.432 105.88 150.297 106.922C149.172 107.964 148.344 109.75 147.812 112.281L146.203 120H143.375ZM172.375 117.594C170.76 119.448 169.073 120.375 167.312 120.375C165.74 120.375 164.427 119.797 163.375 118.641C162.333 117.474 161.812 115.786 161.812 113.578C161.812 111.557 162.224 109.714 163.047 108.047C163.88 106.37 164.917 105.115 166.156 104.281C167.406 103.448 168.656 103.031 169.906 103.031C171.969 103.031 173.526 104.026 174.578 106.016L176.453 97.0938H179.266L174.484 120H171.875L172.375 117.594ZM164.625 113.047C164.625 114.203 164.74 115.115 164.969 115.781C165.198 116.448 165.589 117.005 166.141 117.453C166.693 117.891 167.354 118.109 168.125 118.109C169.406 118.109 170.568 117.443 171.609 116.109C173.005 114.339 173.703 112.151 173.703 109.547C173.703 108.234 173.359 107.208 172.672 106.469C171.984 105.729 171.12 105.359 170.078 105.359C169.401 105.359 168.781 105.51 168.219 105.812C167.667 106.115 167.115 106.63 166.562 107.359C166.021 108.078 165.562 108.995 165.188 110.109C164.812 111.224 164.625 112.203 164.625 113.047ZM190.328 117C188.339 119.25 186.302 120.375 184.219 120.375C182.938 120.375 181.901 120.01 181.109 119.281C180.328 118.542 179.938 117.641 179.938 116.578C179.938 115.88 180.115 114.682 180.469 112.984L182.469 103.406H185.297L183.078 114.016C182.891 114.901 182.797 115.589 182.797 116.078C182.797 116.703 182.984 117.193 183.359 117.547C183.745 117.891 184.307 118.062 185.047 118.062C185.839 118.062 186.609 117.87 187.359 117.484C188.12 117.099 188.771 116.578 189.312 115.922C189.865 115.266 190.312 114.49 190.656 113.594C190.885 113.021 191.151 112.016 191.453 110.578L192.953 103.406H195.781L192.312 120H189.703L190.328 117ZM197.078 114.328L199.906 114.156C199.906 114.969 200.031 115.661 200.281 116.234C200.531 116.807 200.99 117.276 201.656 117.641C202.333 118.005 203.12 118.188 204.016 118.188C205.266 118.188 206.203 117.938 206.828 117.438C207.453 116.938 207.766 116.349 207.766 115.672C207.766 115.182 207.578 114.719 207.203 114.281C206.818 113.844 205.875 113.307 204.375 112.672C202.885 112.026 201.932 111.573 201.516 111.312C200.818 110.885 200.292 110.385 199.938 109.812C199.583 109.229 199.406 108.562 199.406 107.812C199.406 106.5 199.927 105.375 200.969 104.438C202.01 103.5 203.469 103.031 205.344 103.031C207.427 103.031 209.01 103.516 210.094 104.484C211.188 105.443 211.755 106.708 211.797 108.281L209.031 108.469C208.99 107.469 208.635 106.677 207.969 106.094C207.302 105.51 206.359 105.219 205.141 105.219C204.161 105.219 203.401 105.443 202.859 105.891C202.318 106.339 202.047 106.823 202.047 107.344C202.047 107.865 202.281 108.323 202.75 108.719C203.062 108.99 203.87 109.406 205.172 109.969C207.339 110.906 208.703 111.646 209.266 112.188C210.161 113.052 210.609 114.104 210.609 115.344C210.609 116.167 210.354 116.974 209.844 117.766C209.344 118.557 208.573 119.193 207.531 119.672C206.5 120.141 205.281 120.375 203.875 120.375C201.958 120.375 200.328 119.901 198.984 118.953C197.641 118.005 197.005 116.464 197.078 114.328ZM219.422 117.703L218.953 120.016C218.276 120.193 217.62 120.281 216.984 120.281C215.859 120.281 214.964 120.005 214.297 119.453C213.797 119.036 213.547 118.469 213.547 117.75C213.547 117.385 213.682 116.547 213.953 115.234L215.969 105.594H213.734L214.188 103.406H216.422L217.281 99.3281L220.516 97.375L219.25 103.406H222.031L221.562 105.594H218.797L216.875 114.766C216.635 115.932 216.516 116.63 216.516 116.859C216.516 117.193 216.609 117.448 216.797 117.625C216.995 117.802 217.312 117.891 217.75 117.891C218.375 117.891 218.932 117.828 219.422 117.703ZM221.719 120L225.188 103.406H227.688L226.984 106.797C227.839 105.516 228.672 104.568 229.484 103.953C230.307 103.339 231.146 103.031 232 103.031C232.562 103.031 233.255 103.234 234.078 103.641L232.922 106.266C232.432 105.911 231.896 105.734 231.312 105.734C230.323 105.734 229.307 106.286 228.266 107.391C227.224 108.495 226.406 110.479 225.812 113.344L224.406 120H221.719ZM231.312 126.406L231.484 123.75C232.068 123.917 232.635 124 233.188 124C233.76 124 234.224 123.87 234.578 123.609C235.036 123.266 235.536 122.62 236.078 121.672L236.984 120.047L234.219 103.406H237L238.25 111.797C238.5 113.453 238.714 115.109 238.891 116.766L246.312 103.406H249.266L238.688 122.203C237.667 124.036 236.76 125.25 235.969 125.844C235.177 126.438 234.266 126.734 233.234 126.734C232.578 126.734 231.938 126.625 231.312 126.406ZM246.781 120L247.453 116.797H250.656L249.969 120H246.781Z" fill="white"/>
<path d="M23 152.312H27.016V153.976H23V152.312ZM27.9531 152.312H31.9691V153.976H27.9531V152.312ZM39.9846 147.848H36.6406V146.344H45.1046V147.848H41.7606V157H39.9846V147.848ZM45.7969 146.344H47.4449V150.216C48.0742 149.48 48.8635 149.112 49.8129 149.112C50.8689 149.112 51.6049 149.453 52.0209 150.136C52.2982 150.584 52.4369 151.299 52.4369 152.28V157H50.7889V152.488C50.7889 151.123 50.2982 150.44 49.3169 150.44C48.6129 150.44 48.0955 150.712 47.7649 151.256C47.5515 151.64 47.4449 152.205 47.4449 152.952V157H45.7969V146.344ZM59.9724 152.44C59.887 151.085 59.2684 150.408 58.1164 150.408C57.0177 150.408 56.3884 151.085 56.2284 152.44H59.9724ZM56.1964 153.592C56.2497 155.128 56.9217 155.896 58.2124 155.896C59.0337 155.896 59.599 155.443 59.9084 154.536L61.5884 154.776C61.119 156.365 59.983 157.16 58.1804 157.16C57.0284 157.16 56.127 156.808 55.4764 156.104C54.815 155.411 54.4844 154.44 54.4844 153.192C54.4844 151.955 54.8097 150.963 55.4604 150.216C56.111 149.48 56.975 149.112 58.0524 149.112C59.183 149.112 60.0684 149.48 60.7084 150.216C61.3484 150.963 61.6684 151.987 61.6684 153.288C61.6577 153.32 61.6524 153.363 61.6524 153.416V153.592H56.1964ZM73.9575 149.688C73.5628 148.344 72.6988 147.672 71.3655 147.672C69.2855 147.672 68.2455 148.989 68.2455 151.624C68.2455 154.333 69.2642 155.688 71.3015 155.688C72.7735 155.688 73.6962 154.851 74.0695 153.176L75.7975 153.688C75.1575 156.013 73.6802 157.176 71.3655 157.176C69.8402 157.176 68.6348 156.685 67.7495 155.704C66.8748 154.712 66.4375 153.363 66.4375 151.656C66.4375 149.971 66.8908 148.632 67.7975 147.64C68.6935 146.648 69.9095 146.152 71.4455 146.152C73.1842 146.152 74.4428 146.808 75.2215 148.12C75.3815 148.387 75.5362 148.771 75.6855 149.272L73.9575 149.688ZM77.1406 146.344H78.9006V157H77.1406V146.344ZM84.9605 150.712C85.9418 150.712 86.6138 150.611 86.9765 150.408C87.3498 150.205 87.5365 149.827 87.5365 149.272C87.5365 148.696 87.3552 148.312 86.9925 148.12C86.6298 147.928 85.8938 147.832 84.7845 147.832H83.0725V150.712H84.9605ZM85.4085 155.496C87.1045 155.496 87.9525 154.957 87.9525 153.88C87.9525 153.027 87.5418 152.509 86.7205 152.328C86.3898 152.253 85.8832 152.216 85.2005 152.216H83.0725V155.496H85.4085ZM81.3125 146.344H85.4405C86.5925 146.344 87.4298 146.493 87.9525 146.792C88.8272 147.304 89.2645 148.056 89.2645 149.048C89.2645 150.093 88.7632 150.856 87.7605 151.336C89.1045 151.731 89.7765 152.595 89.7765 153.928C89.7765 155.432 89.1045 156.376 87.7605 156.76C87.2165 156.92 86.3525 157 85.1685 157H81.3125V146.344ZM91.7188 146.344H93.4628L98.1988 153.72L98.5828 154.376V154.28C98.5401 153.885 98.5188 153.491 98.5188 153.096L98.4868 146.344H100.151V157H98.3748L93.3188 149.224C93.2974 149.171 93.2761 149.128 93.2548 149.096L93.3188 149.88L93.3668 157H91.7188V146.344ZM115.98 146.344L111.98 157H110.14L106.156 146.344H108.06L110.796 154.152C110.935 154.547 111.031 154.856 111.084 155.08L111.388 154.152L114.156 146.344H115.98ZM116.078 146.344H117.726V148.024H116.078V146.344ZM116.078 149.288H117.726V157H116.078V149.288ZM124.725 151.48C124.597 150.744 124.058 150.376 123.109 150.376C122.117 150.376 121.621 150.648 121.621 151.192C121.621 151.427 121.744 151.613 121.989 151.752C122.224 151.891 122.704 152.045 123.429 152.216C124.677 152.493 125.504 152.797 125.909 153.128C126.368 153.501 126.597 154.003 126.597 154.632C126.597 155.4 126.293 156.013 125.685 156.472C125.077 156.931 124.277 157.16 123.285 157.16C121.28 157.16 120.117 156.355 119.797 154.744L121.445 154.488C121.605 155.437 122.208 155.912 123.253 155.912C124.362 155.912 124.917 155.56 124.917 154.856C124.917 154.451 124.56 154.173 123.845 154.024C122.256 153.661 121.226 153.299 120.757 152.936C120.288 152.563 120.053 152.051 120.053 151.4C120.053 150.717 120.32 150.168 120.853 149.752C121.386 149.325 122.085 149.112 122.949 149.112C124.922 149.112 126.042 149.816 126.309 151.224L124.725 151.48ZM127.703 146.344H129.351V148.024H127.703V146.344ZM127.703 149.288H129.351V157H127.703V149.288ZM133.118 153.144C133.118 154.936 133.817 155.832 135.214 155.832C135.843 155.832 136.35 155.587 136.734 155.096C137.118 154.616 137.31 153.976 137.31 153.176C137.31 151.363 136.611 150.456 135.214 150.456C133.817 150.456 133.118 151.352 133.118 153.144ZM131.422 153.24C131.422 151.981 131.769 150.979 132.462 150.232C133.145 149.485 134.062 149.112 135.214 149.112C136.345 149.112 137.262 149.48 137.966 150.216C138.659 150.952 139.006 151.923 139.006 153.128C139.006 154.333 138.654 155.309 137.95 156.056C137.257 156.792 136.345 157.16 135.214 157.16C134.073 157.16 133.155 156.803 132.462 156.088C131.769 155.373 131.422 154.424 131.422 153.24ZM140.109 149.288H141.629V150.392C142.227 149.539 143.069 149.112 144.157 149.112C145.224 149.112 145.965 149.48 146.381 150.216C146.552 150.536 146.659 150.803 146.701 151.016C146.733 151.24 146.749 151.736 146.749 152.504V157H145.101V152.664C145.101 151.181 144.611 150.44 143.629 150.44C142.904 150.44 142.387 150.728 142.077 151.304C141.864 151.699 141.757 152.307 141.757 153.128V157H140.109V149.288Z" fill="#DEE0E3"/>
</svg>
