<svg width="14" height="12" viewBox="0 0 14 12" fill="none" xmlns="http://www.w3.org/2000/svg">
<path fill-rule="evenodd" clip-rule="evenodd" d="M6.99999 0.666656C7.56999 0.666656 8.15466 0.681323 8.72133 0.705323L9.39066 0.737323L10.0313 0.775323L10.6313 0.81599L11.1793 0.858657C11.7741 0.903917 12.3339 1.15761 12.76 1.57506C13.1861 1.9925 13.4512 2.54692 13.5087 3.14066L13.5353 3.42399L13.5853 4.03066C13.632 4.65932 13.6667 5.34466 13.6667 5.99999C13.6667 6.65532 13.632 7.34066 13.5853 7.96932L13.5353 8.57599L13.5087 8.85932C13.4512 9.45317 13.186 10.0077 12.7597 10.4251C12.3335 10.8426 11.7736 11.0962 11.1787 11.1413L10.632 11.1833L10.032 11.2247L9.39066 11.2627L8.72133 11.2947C8.14788 11.3195 7.57398 11.3324 6.99999 11.3333C6.42601 11.3324 5.85211 11.3195 5.27866 11.2947L4.60933 11.2627L3.96866 11.2247L3.36866 11.1833L2.82066 11.1413C2.22587 11.0961 1.66613 10.8424 1.24002 10.4249C0.81392 10.0075 0.548789 9.45306 0.491328 8.85932L0.464662 8.57599L0.414662 7.96932C0.363883 7.31407 0.336755 6.6572 0.333328 5.99999C0.333328 5.34466 0.367995 4.65932 0.414662 4.03066L0.464662 3.42399L0.491328 3.14066C0.548766 2.54703 0.813803 1.99269 1.23977 1.57526C1.66574 1.15783 2.22532 0.904067 2.81999 0.858657L3.36733 0.81599L3.96733 0.775323L4.60866 0.737323L5.27799 0.705323C5.85166 0.680475 6.42579 0.667583 6.99999 0.666656ZM5.66666 4.38332V7.61666C5.66666 7.92466 5.99999 8.11666 6.26666 7.96332L9.06666 6.34666C9.12759 6.31158 9.1782 6.26107 9.21339 6.20021C9.24858 6.13935 9.26711 6.07029 9.26711 5.99999C9.26711 5.92969 9.24858 5.86063 9.21339 5.79977C9.1782 5.73891 9.12759 5.6884 9.06666 5.65332L6.26666 4.03732C6.20583 4.0022 6.13683 3.98372 6.0666 3.98373C5.99636 3.98374 5.92737 4.00225 5.86655 4.03739C5.80573 4.07253 5.75524 4.12306 5.72015 4.1839C5.68507 4.24474 5.66662 4.31375 5.66666 4.38399V4.38332Z" fill="white"/>
</svg>
